<svg width="66" height="58" viewBox="0 0 66 58" fill="none" xmlns="http://www.w3.org/2000/svg">
<path d="M62.0595 0.666687H51.9405C50.264 0.666687 48.9047 2.02593 48.9047 3.7024V39.1191H65.0952V3.7024C65.0952 2.02593 63.736 0.666687 62.0595 0.666687ZM63.0714 37.0953H50.9286V3.7024C50.9286 3.43403 51.0352 3.17665 51.2249 2.98688C51.4147 2.79711 51.6721 2.6905 51.9405 2.6905H62.0595C62.3279 2.6905 62.5853 2.79711 62.775 2.98688C62.9648 3.17665 63.0714 3.43403 63.0714 3.7024V37.0953ZM43.8452 43.1667H3.36903C1.69255 43.1667 0.333313 44.5259 0.333313 46.2024V54.2976C0.333313 55.9741 1.69255 57.3334 3.36903 57.3334H43.8452C45.5217 57.3334 46.8809 55.9741 46.8809 54.2976V46.2024C46.8809 44.5259 45.5217 43.1667 43.8452 43.1667ZM44.8571 54.2976C44.8571 54.566 44.7505 54.8234 44.5607 55.0132C44.371 55.2029 44.1136 55.3095 43.8452 55.3095H3.36903C3.10065 55.3095 2.84327 55.2029 2.6535 55.0132C2.46373 54.8234 2.35712 54.566 2.35712 54.2976V46.2024C2.35712 45.934 2.46373 45.6766 2.6535 45.4869C2.84327 45.2971 3.10065 45.1905 3.36903 45.1905H43.8452C44.1136 45.1905 44.371 45.2971 44.5607 45.4869C44.7505 45.6766 44.8571 45.934 44.8571 46.2024V54.2976ZM55.9881 43.1667C53.195 43.1701 50.932 45.4331 50.9286 48.2262V52.2738C50.9286 55.068 53.194 57.3334 55.9881 57.3334C58.7822 57.3334 61.0476 55.068 61.0476 52.2738V48.2262C61.0442 45.4331 58.7812 43.1701 55.9881 43.1667ZM59.0238 52.2738C59.0238 53.9503 57.6645 55.3095 55.9881 55.3095C54.3116 55.3095 52.9524 53.9503 52.9524 52.2738V48.2262C52.955 47.6006 53.1509 46.9911 53.5131 46.4811C53.8754 45.9711 54.3864 45.5854 54.9762 45.3768V48.2381C54.9762 48.7904 55.4239 49.2381 55.9762 49.2381H56C56.5523 49.2381 57 48.7904 57 48.2381V45.3768C57.5898 45.5854 58.1007 45.9711 58.463 46.4811C58.8253 46.9911 59.0211 47.6006 59.0238 48.2262V52.2738ZM43.8452 0.666687H3.36903C1.69255 0.666687 0.333313 2.02593 0.333313 3.7024V27.9881C0.333313 29.6646 1.69255 31.0238 3.36903 31.0238H17.5357V35.2404C17.5347 36.2642 16.7047 37.0942 15.6809 37.0953H13.4762C12.9239 37.0953 12.4762 37.543 12.4762 38.0953V38.1191C12.4762 38.6714 12.9239 39.1191 13.4762 39.1191H31.7143C32.2666 39.1191 32.7143 38.6714 32.7143 38.1191V38.0953C32.7143 37.543 32.2666 37.0953 31.7143 37.0953H29.5096C28.4858 37.0942 27.6558 36.2642 27.6547 35.2404V31.0238H43.8452C45.5217 31.0238 46.8809 29.6646 46.8809 27.9881V3.7024C46.8809 2.02593 45.5217 0.666687 43.8452 0.666687ZM19.0862 37.0953C19.3976 36.5267 19.5604 35.8887 19.5595 35.2404V31.0238H21.5833V35.3244H23.6071V31.0238H25.6309V35.2404C25.6301 35.8887 25.7929 36.5267 26.1043 37.0953H19.0862ZM44.8571 27.9881C44.8571 28.2565 44.7505 28.5139 44.5607 28.7036C44.371 28.8934 44.1136 29 43.8452 29H3.36903C3.10065 29 2.84327 28.8934 2.6535 28.7036C2.46373 28.5139 2.35712 28.2565 2.35712 27.9881V22.9286H44.8571V27.9881ZM44.8571 20.9048H2.35712V3.7024C2.35712 3.43403 2.46373 3.17665 2.6535 2.98688C2.84327 2.79711 3.10065 2.6905 3.36903 2.6905H43.8452C44.1136 2.6905 44.371 2.79711 44.5607 2.98688C44.7505 3.17665 44.8571 3.43403 44.8571 3.7024V20.9048Z" fill="#50AB09"/>
</svg>
