<svg width="1920" height="3778" viewBox="0 0 1920 3778" fill="none" xmlns="http://www.w3.org/2000/svg">
<g opacity="0.05">
<path d="M-134.68 647.611C-102.471 678.159 -61.085 700.074 -17.4446 708.536C19.8551 715.624 58.1983 713.312 94.1395 702.182C104.503 698.785 114.507 693.983 124.538 687.527C169.79 659.494 236.595 576.817 295.5 570C368.298 561.878 469.581 622.565 563.439 547.975C590.638 526.652 609.231 494.501 618.314 460.289C625.635 432.666 624.464 402.871 618.553 375.036C609.107 329.838 588.911 288.285 562.046 249.933C546.875 228.058 529.142 207.286 511.133 187.782C473.985 147.866 352.442 185.26 307 154.5C238.011 108.347 237.628 1.04589 154.792 0.353397C136.213 0.309874 117.358 1.53449 99.2216 5.57006C76.6195 10.2975 55.3694 17.9734 34.3407 27.6888C5.62251 40.7167 -21.2472 57.4644 -46.2415 76.2782C-133.598 142.319 -198.805 239.383 -220.426 348.217C-243.943 471.908 -202.988 583.018 -134.68 647.611Z" fill="url(#paint0_linear_0_1)"/>
<path d="M-134.68 647.611C-102.471 678.159 -61.085 700.074 -17.4446 708.536C19.8551 715.624 58.1983 713.312 94.1395 702.182C104.503 698.785 114.507 693.983 124.538 687.527C169.79 659.494 236.595 576.817 295.5 570C368.298 561.878 469.581 622.565 563.439 547.975C590.638 526.652 609.231 494.501 618.314 460.289C625.635 432.666 624.464 402.871 618.553 375.036C609.107 329.838 588.911 288.285 562.046 249.933C546.875 228.058 529.142 207.286 511.133 187.782C473.985 147.866 352.442 185.26 307 154.5C238.011 108.347 237.628 1.04589 154.792 0.353397C136.213 0.309874 117.358 1.53449 99.2216 5.57006C76.6195 10.2975 55.3694 17.9734 34.3407 27.6888C5.62251 40.7167 -21.2472 57.4644 -46.2415 76.2782C-133.598 142.319 -198.805 239.383 -220.426 348.217C-243.943 471.908 -202.988 583.018 -134.68 647.611Z" fill="url(#paint1_linear_0_1)"/>
</g>
<g opacity="0.05">
<path d="M1524.16 2191.32C1551.27 2217.03 1586.11 2235.48 1622.85 2242.61C1654.25 2248.57 1686.53 2246.63 1716.79 2237.26C1725.51 2234.4 1733.94 2230.35 1742.38 2224.92C1780.48 2201.32 1836.72 2131.72 1886.31 2125.98C1947.59 2119.14 2032.86 2170.23 2111.87 2107.44C2134.77 2089.49 2150.42 2062.42 2158.07 2033.62C2164.23 2010.36 2163.25 1985.28 2158.27 1961.85C2150.32 1923.8 2133.32 1888.81 2110.7 1856.53C2097.93 1838.11 2083 1820.63 2067.84 1804.21C2036.57 1770.6 1934.24 1802.08 1895.99 1776.19C1837.91 1737.33 1837.59 1647 1767.85 1646.42C1752.21 1646.38 1736.34 1647.41 1721.07 1650.81C1702.04 1654.79 1684.15 1661.25 1666.45 1669.43C1642.27 1680.4 1619.65 1694.5 1598.61 1710.34C1525.07 1765.93 1470.17 1847.65 1451.97 1939.27C1432.17 2043.4 1466.65 2136.94 1524.16 2191.32Z" fill="url(#paint2_linear_0_1)"/>
<path d="M1524.16 2191.32C1551.27 2217.03 1586.11 2235.48 1622.85 2242.61C1654.25 2248.57 1686.53 2246.63 1716.79 2237.26C1725.51 2234.4 1733.94 2230.35 1742.38 2224.92C1780.48 2201.32 1836.72 2131.72 1886.31 2125.98C1947.59 2119.14 2032.86 2170.23 2111.87 2107.44C2134.77 2089.49 2150.42 2062.42 2158.07 2033.62C2164.23 2010.36 2163.25 1985.28 2158.27 1961.85C2150.32 1923.8 2133.32 1888.81 2110.7 1856.53C2097.93 1838.11 2083 1820.63 2067.84 1804.21C2036.57 1770.6 1934.24 1802.08 1895.99 1776.19C1837.91 1737.33 1837.59 1647 1767.85 1646.42C1752.21 1646.38 1736.34 1647.41 1721.07 1650.81C1702.04 1654.79 1684.15 1661.25 1666.45 1669.43C1642.27 1680.4 1619.65 1694.5 1598.61 1710.34C1525.07 1765.93 1470.17 1847.65 1451.97 1939.27C1432.17 2043.4 1466.65 2136.94 1524.16 2191.32Z" fill="url(#paint3_linear_0_1)"/>
</g>
<g opacity="0.05">
<path d="M1813.48 3763.3C1768.6 3777.75 1720.69 3781.66 1678.4 3773.38C1642.33 3766.18 1610.66 3750.65 1586.01 3728.51C1579 3721.97 1573.1 3714.37 1568.1 3705.35C1544.95 3665.62 1534 3572.01 1487.17 3545.4C1429.13 3512.77 1307.9 3528.28 1269.13 3431.95C1257.73 3404.28 1259.82 3370.49 1271.25 3338.32C1280.49 3312.36 1298.25 3287.55 1318.99 3266.09C1352.53 3231.18 1393.27 3203.16 1437.94 3180.21C1463.29 3167.07 1490.23 3155.76 1516.68 3145.63C1571.08 3124.99 1654.58 3199.65 1710.96 3189.7C1796.25 3175.05 1856.92 3084.38 1928.55 3113.1C1944.55 3119.64 1960.08 3127.35 1973.41 3137.18C1990.19 3149.18 2004.15 3163.19 2016.77 3178.86C2034.14 3200.04 2047.83 3223.73 2058.74 3248.49C2096.73 3335.29 2098.22 3440.51 2055.61 3540.27C2006.27 3653.27 1908.56 3732.81 1813.48 3763.3Z" fill="url(#paint4_linear_0_1)"/>
<path d="M1813.48 3763.3C1768.6 3777.75 1720.69 3781.66 1678.4 3773.38C1642.33 3766.18 1610.66 3750.65 1586.01 3728.51C1579 3721.97 1573.1 3714.37 1568.1 3705.35C1544.95 3665.62 1534 3572.01 1487.17 3545.4C1429.13 3512.77 1307.9 3528.28 1269.13 3431.95C1257.73 3404.28 1259.82 3370.49 1271.25 3338.32C1280.49 3312.36 1298.25 3287.55 1318.99 3266.09C1352.53 3231.18 1393.27 3203.16 1437.94 3180.21C1463.29 3167.07 1490.23 3155.76 1516.68 3145.63C1571.08 3124.99 1654.58 3199.65 1710.96 3189.7C1796.25 3175.05 1856.92 3084.38 1928.55 3113.1C1944.55 3119.64 1960.08 3127.35 1973.41 3137.18C1990.19 3149.18 2004.15 3163.19 2016.77 3178.86C2034.14 3200.04 2047.83 3223.73 2058.74 3248.49C2096.73 3335.29 2098.22 3440.51 2055.61 3540.27C2006.27 3653.27 1908.56 3732.81 1813.48 3763.3Z" fill="url(#paint5_linear_0_1)"/>
</g>
<defs>
<linearGradient id="paint0_linear_0_1" x1="-185.282" y1="296.616" x2="606.936" y2="467.73" gradientUnits="userSpaceOnUse">
<stop offset="0.00666585" stop-color="#FF9C37"/>
<stop offset="0.9967" stop-color="#FF7300"/>
</linearGradient>
<linearGradient id="paint1_linear_0_1" x1="285.986" y1="-230.304" x2="104.825" y2="1011.62" gradientUnits="userSpaceOnUse">
<stop stop-color="#FFDF00"/>
<stop offset="1" stop-color="#FFB800"/>
</linearGradient>
<linearGradient id="paint2_linear_0_1" x1="1481.56" y1="1895.83" x2="2148.49" y2="2039.88" gradientUnits="userSpaceOnUse">
<stop offset="0.00666585" stop-color="#FF9C37"/>
<stop offset="0.9967" stop-color="#FF7300"/>
</linearGradient>
<linearGradient id="paint3_linear_0_1" x1="1878.3" y1="1452.24" x2="1725.79" y2="2497.76" gradientUnits="userSpaceOnUse">
<stop stop-color="#FFDF00"/>
<stop offset="1" stop-color="#FFB800"/>
</linearGradient>
<linearGradient id="paint4_linear_0_1" x1="2054.4" y1="3484.16" x2="1340.48" y2="3192.75" gradientUnits="userSpaceOnUse">
<stop offset="0.00666585" stop-color="#FF9C37"/>
<stop offset="0.9967" stop-color="#FF7300"/>
</linearGradient>
<linearGradient id="paint5_linear_0_1" x1="1945.44" y1="2871.48" x2="1657.48" y2="4048.89" gradientUnits="userSpaceOnUse">
<stop stop-color="#FFDF00"/>
<stop offset="1" stop-color="#FFB800"/>
</linearGradient>
</defs>
</svg>
