<svg width="1920" height="1051" viewBox="0 0 1920 1051" fill="none" xmlns="http://www.w3.org/2000/svg">
<path opacity="0.15" d="M296 316.972C296 437.378 198.386 535 77.9897 535C50.527 535 24.192 529.924 0 520.619V113.381C24.192 104.076 50.527 99 77.9897 99C198.386 99 296 196.622 296 316.972Z" fill="url(#paint0_linear_0_1)"/>
<path opacity="0.15" d="M705 714C765.199 714 814 665.199 814 605C814 544.801 765.199 496 705 496C644.801 496 596 544.801 596 605C596 665.199 644.801 714 705 714Z" fill="url(#paint1_linear_0_1)"/>
<path opacity="0.15" d="M1236.5 192C1262.18 192 1283 171.181 1283 145.5C1283 119.819 1262.18 99 1236.5 99C1210.82 99 1190 119.819 1190 145.5C1190 171.181 1210.82 192 1236.5 192Z" fill="url(#paint2_linear_0_1)"/>
<path opacity="0.15" d="M1109.5 610C1118.06 610 1125 603.06 1125 594.5C1125 585.94 1118.06 579 1109.5 579C1100.94 579 1094 585.94 1094 594.5C1094 603.06 1100.94 610 1109.5 610Z" fill="url(#paint3_linear_0_1)"/>
<g opacity="0.5">
<path d="M1250.32 798.611C1282.53 829.159 1323.92 851.074 1367.56 859.536C1404.86 866.624 1443.2 864.312 1479.14 853.182C1489.5 849.785 1499.51 844.983 1509.54 838.527C1554.79 810.494 1600.25 761.596 1659.16 754.778C1731.96 746.657 1854.58 773.565 1948.44 698.975C1975.64 677.652 1994.23 645.501 2003.31 611.289C2010.63 583.666 2009.46 553.871 2003.55 526.036C1994.11 480.838 1973.91 439.285 1947.05 400.933C1931.88 379.058 1914.14 358.286 1896.13 338.782C1858.98 298.866 1817.32 262.949 1771.88 232.19C1702.89 186.037 1622.63 152.046 1539.79 151.353C1521.21 151.31 1502.36 152.534 1484.22 156.57C1461.62 161.298 1440.37 168.973 1419.34 178.689C1390.62 191.717 1363.75 208.464 1338.76 227.278C1251.4 293.319 1186.19 390.383 1164.57 499.217C1141.06 622.908 1182.01 734.018 1250.32 798.611Z" fill="url(#paint4_linear_0_1)"/>
<path d="M1250.32 798.611C1282.53 829.159 1323.92 851.074 1367.56 859.536C1404.86 866.624 1443.2 864.312 1479.14 853.182C1489.5 849.785 1499.51 844.983 1509.54 838.527C1554.79 810.494 1600.25 761.596 1659.16 754.778C1731.96 746.657 1854.58 773.565 1948.44 698.975C1975.64 677.652 1994.23 645.501 2003.31 611.289C2010.63 583.666 2009.46 553.871 2003.55 526.036C1994.11 480.838 1973.91 439.285 1947.05 400.933C1931.88 379.058 1914.14 358.286 1896.13 338.782C1858.98 298.866 1817.32 262.949 1771.88 232.19C1702.89 186.037 1622.63 152.046 1539.79 151.353C1521.21 151.31 1502.36 152.534 1484.22 156.57C1461.62 161.298 1440.37 168.973 1419.34 178.689C1390.62 191.717 1363.75 208.464 1338.76 227.278C1251.4 293.319 1186.19 390.383 1164.57 499.217C1141.06 622.908 1182.01 734.018 1250.32 798.611Z" fill="url(#paint5_linear_0_1)"/>
</g>
<path d="M1661.26 706.694C1740.42 627.548 1740.42 499.228 1661.26 420.082C1582.09 340.937 1453.74 340.937 1374.58 420.082C1295.41 499.228 1295.41 627.548 1374.58 706.694C1453.74 785.84 1582.09 785.84 1661.26 706.694Z" fill="#553E93"/>
<path d="M1536.02 361.531C1536.83 362.073 1537.69 362.615 1538.59 363.157C1538.68 362.57 1581.31 376.081 1585.69 378.069C1598.35 383.853 1606.12 385.932 1592.25 390.315C1598.26 388.417 1611.91 425.471 1621.44 423.935C1630.75 422.444 1633.51 432.927 1635.95 440.112C1637.26 443.908 1641.33 446.167 1639.79 450.731C1639.3 452.177 1632.65 455.16 1633.15 456.154C1635.95 461.441 1648.65 462.073 1648.74 469.891C1647.52 471.834 1645.67 472.783 1643.14 472.692C1637.26 475.087 1642.82 479.832 1643.95 483.537C1646.66 492.439 1655.21 500.347 1661.35 490.225C1667.55 480.058 1653.35 470.071 1661.99 459.678C1667.05 453.578 1680.52 464.513 1677.31 452.9C1676.4 449.556 1662.35 434.825 1670.12 432.656C1670.48 432.566 1670.76 431.797 1670.94 430.532C1647.88 403.917 1617.56 382.995 1581.71 371.11C1566.62 366.049 1551.25 362.886 1536.02 361.531Z" fill="#786AB5"/>
<path d="M1698.33 471.02C1697.33 469.123 1687.34 480.103 1685.26 481.278C1677.67 485.48 1676 477.211 1669.63 485.932C1668.5 487.469 1656.97 502.742 1656.92 501.07C1657.15 506.764 1654.8 512.367 1657.51 517.835C1659.95 522.715 1654.21 527.144 1654.53 532.295C1654.98 539.073 1648.79 543.682 1650.37 550.415C1651.73 556.244 1655.25 560.537 1655.25 566.728C1655.25 576.624 1653.49 581.143 1661.44 588.237C1666.55 592.801 1673.24 608.572 1682.24 599.67C1683.91 598.043 1700.32 584.893 1699.37 583.854C1705.2 590.045 1700.04 585.978 1708.36 585.617C1710.62 585.526 1706.69 642.643 1703.25 641.333C1703.8 641.559 1704.43 641.469 1705.15 641.197C1707.05 636.679 1708.77 632.024 1710.35 627.28C1728.16 573.551 1722.24 517.699 1698.33 471.02Z" fill="#786AB5"/>
<path d="M1603.45 660.809C1603.5 654.98 1592.61 649.512 1586.69 649.783C1573.98 650.28 1570.64 646.213 1558.84 643.14C1548.94 640.565 1550.48 623.71 1535.43 622.987C1527.43 622.58 1512.33 600.845 1504.42 607.352C1499.18 611.644 1489.15 600.122 1485.62 600.076C1477.53 599.986 1484.08 604.776 1478.8 598.766C1475.32 594.789 1465.73 603.149 1463.75 605.499C1459.81 610.063 1442.77 603.194 1440.15 596.642C1439.2 594.292 1444.67 584.938 1440.6 578.296C1439.07 575.72 1427.77 577.618 1426 575.901C1423.65 573.596 1432.06 565.191 1431.11 563.429C1427.18 556.109 1414.25 574.455 1408.6 559.724C1404.04 547.749 1410 543.23 1411.18 531.707C1411.72 526.285 1420.99 523.619 1425.46 525.562C1432.65 528.725 1431.7 525.788 1437.17 525.2C1441.46 524.748 1446.07 529.629 1450.19 530.352C1455.07 531.21 1451.72 544.947 1456.33 548.246C1459 550.144 1458.95 529.764 1459.14 529.267C1462.07 520.998 1474.86 521.766 1476.94 514.807C1482.01 497.681 1493.58 498.991 1507.63 492.936C1514.32 490.044 1530.87 486.7 1535.02 480.148C1542.84 467.947 1522.32 449.692 1516.99 441.061C1516.94 440.97 1512.24 446.348 1511.16 446.393C1507.18 446.574 1503.48 424.16 1495.88 437.039C1494.44 439.479 1488.88 440.202 1491.95 443.817C1498.01 450.866 1486.25 452.584 1482.59 451.544C1478.89 450.55 1460.63 439.976 1467.04 434.057C1480.15 422.037 1483.09 428.273 1496.7 428.182C1512.24 428.137 1512.83 442.733 1525.71 427.098C1529.28 422.76 1506.01 410.378 1510.62 404.911C1526.89 385.48 1535.79 428.634 1541.89 436.09C1550.8 447.026 1556.54 441.241 1555.82 429.176C1555.5 423.483 1567.57 418.196 1568.43 412.05C1568.61 410.785 1560.61 399.488 1559.43 398.72C1555.23 396.009 1554.28 393.162 1552.11 390.496C1549.4 387.107 1545.15 392.168 1542.71 389.14C1541.58 387.739 1521.15 388.507 1518.98 388.553C1508.27 388.146 1496.24 388.507 1485.4 388.643C1480.97 388.462 1457.46 399.94 1456.83 390.541C1456.51 385.886 1462.12 377.708 1452.13 381.503C1448.92 382.723 1446.93 380.916 1447.56 380.78C1440.69 382.181 1427.81 386.971 1422.3 391.942C1419.22 394.698 1426.55 395.963 1427.04 398.313C1427.99 402.832 1416.56 411.282 1414.03 414.219C1404.94 424.703 1405.35 438.621 1393.1 448.788C1378.95 460.537 1378.18 477.753 1378.05 493.976C1378 501.838 1371.22 505.137 1375.52 514.039C1379.13 521.63 1385.91 525.291 1387.04 534.509C1387.77 540.564 1383.02 546.167 1385.33 552.087C1388.13 559.362 1393.51 565.779 1400.06 569.213C1414.07 576.579 1423.25 582.092 1432.24 595.558C1443.36 612.277 1463.25 604.957 1456.74 621.857C1453.98 628.951 1447.02 632.34 1444.17 639.932C1440.74 649.015 1447.34 655.612 1451.54 662.978C1455.79 670.434 1457.37 679.336 1464.83 684.397C1470.16 688.012 1479.93 691.039 1481.28 698.405C1483.45 710.154 1473.55 724.795 1474.64 735.549C1475.36 742.779 1475.5 750.19 1481.78 754.935C1493.12 763.43 1490.41 751.591 1497.46 745.988C1504.06 740.746 1511.84 742.282 1519.38 740.204C1526.3 738.306 1518.07 735.73 1520.88 734.194C1526.8 730.85 1530.32 735.866 1536.02 730.805C1541.17 726.195 1548.13 724.84 1550.57 717.61C1554.5 705.771 1572.36 710.109 1579.77 700.89C1584.34 695.242 1586.32 689.187 1588.4 682.318C1590.89 673.823 1603.36 669.937 1603.45 660.809C1603.5 654.708 1603.36 666.909 1603.45 660.809Z" fill="#786AB5"/>
<path d="M1479.34 294.382C1476.99 298.539 1453.26 334.96 1458.23 370.568L1484.04 361.305L1495.84 313.315L1479.34 294.382Z" fill="#FDAD9B"/>
<path d="M1582.48 279.469C1582.48 279.469 1566.62 251.272 1527.97 259.09C1489.33 266.862 1468.27 321.629 1478.75 430.08C1478.75 430.08 1540.13 405.905 1619.91 425.381C1619.91 425.335 1606.8 320.319 1582.48 279.469Z" fill="#FF8548"/>
<path d="M1611.95 268.082L1584.79 294.924C1584.79 294.924 1515.18 313.541 1495.84 313.315C1476.49 313.089 1468.9 299.081 1468.9 299.081C1468.9 299.081 1485.21 273.505 1518.26 261.937C1521.37 260.852 1524.58 259.903 1528.02 259.09C1533.71 257.734 1539.5 256.966 1545.28 256.605C1579.41 254.571 1611.95 268.082 1611.95 268.082Z" fill="#FF8548"/>
<path d="M1611.95 268.082C1616.29 272.737 1609.6 277.843 1602.1 285.254C1594.6 292.664 1586.87 297.002 1584.79 294.924C1582.71 292.845 1587.14 285.163 1594.64 277.752C1602.14 270.296 1609.96 265.913 1611.95 268.082Z" fill="#66192D"/>
<path d="M1588.4 295.014C1588.4 295.014 1588 289.637 1594.82 282.813C1598.93 278.701 1604.09 275.99 1607.57 274.499C1609.65 273.595 1612.04 274.589 1612.86 276.713L1615.03 282.271L1604.9 288.733L1588.4 295.014Z" fill="#FDAD9B"/>
<path d="M1540.45 394.427C1540.45 394.427 1624.2 349.466 1654.26 398.494C1676.5 434.78 1643.09 468.58 1519.16 465.146C1519.16 465.146 1506.91 459.452 1509.89 429.99C1511.02 418.377 1540.45 394.427 1540.45 394.427Z" fill="#FFD00E"/>
<path d="M1540.45 394.427C1540.45 394.427 1428.9 349.194 1406.8 377.482C1381.44 409.972 1405.76 465.191 1523.36 445.444L1537.69 430.035L1540.45 394.427Z" fill="#FFD00E"/>
<path d="M1509.12 438.124C1509.12 438.124 1488.56 438.937 1478.89 443.636C1469.21 448.336 1474.37 459.768 1493.98 459.452C1513.6 459.136 1512.11 456.244 1512.11 456.244C1512.11 456.244 1508.4 446.257 1509.12 438.124Z" fill="#66192D"/>
<path d="M1518.98 465.372C1505.24 455.657 1509.58 430.261 1509.62 429.99L1509.67 429.854L1509.8 429.809L1594.51 399.307L1594.69 399.759L1510.12 430.216C1509.8 432.204 1506.32 455.792 1519.29 465.01L1518.98 465.372Z" fill="#020202"/>
<path d="M1535.43 396.596C1528.61 396.596 1523.05 394.879 1518.48 391.49C1509.89 385.073 1508.31 374.906 1509.58 368.083L1517.76 363.383C1518.16 361.169 1533.98 369.438 1533.94 369.438C1534.03 369.483 1541.49 371.607 1567.39 358.503C1585.42 349.375 1594.51 336.406 1595.18 318.873C1595.68 305.678 1589.71 298.222 1588.31 295.014C1588.13 294.607 1597.04 285.751 1596.77 284.847L1603.45 281.503C1603.23 280.735 1609.87 278.159 1609.78 277.933L1614.93 282.271C1617.47 288.1 1622.89 301.476 1622.21 319.913C1621.49 339.072 1613.49 365.462 1579.59 382.633C1561.19 391.942 1546.69 396.596 1535.43 396.596Z" fill="#FDAD9B"/>
<path d="M1529.96 397.681H1457.64C1456.15 397.681 1454.8 396.732 1454.3 395.331L1439.29 350.912C1438.52 348.652 1440.24 346.348 1442.64 346.348H1512.15C1515.32 346.348 1518.12 348.336 1519.11 351.318L1533.26 393.162C1534.03 395.376 1532.36 397.681 1529.96 397.681Z" fill="#66192D"/>
<path d="M1525.4 397.681H1453.12C1451.59 397.681 1450.28 396.732 1449.78 395.331L1434.77 350.912C1434 348.652 1435.72 346.348 1438.12 346.348H1507.63C1510.8 346.348 1513.6 348.336 1514.59 351.318L1528.74 393.162C1529.51 395.376 1527.79 397.681 1525.4 397.681Z" fill="#66192D"/>
<path d="M1474.77 370.523C1474.77 368.851 1476.72 368.128 1478.44 368.128C1480.15 368.128 1482.95 369.981 1482.95 372.331C1482.95 374.861 1480.92 375.223 1479.2 375.223C1477.49 375.268 1474.77 372.692 1474.77 370.523Z" fill="#DEEBE9"/>
<path d="M1552.02 391.4H1453.08V397.681H1554.1C1555.27 397.681 1556.22 396.732 1556.22 395.557C1556.18 393.253 1554.32 391.4 1552.02 391.4Z" fill="#66192D"/>
<path d="M1520.29 368.806C1520.24 368.67 1516.72 355.52 1514.41 351.408C1512.15 347.387 1509.35 346.573 1509.35 346.573L1509.49 346.121C1509.62 346.167 1512.51 346.98 1514.87 351.182C1517.17 355.34 1520.65 368.128 1520.79 368.67L1520.29 368.806Z" fill="#66192D"/>
<path d="M1530.96 391.626C1528.29 391.626 1527.61 390.451 1527.57 390.406V390.36L1521.92 373.686L1522.37 373.551L1527.97 390.18C1528.06 390.27 1528.7 391.129 1530.91 391.129V391.626H1530.96Z" fill="#66192D"/>
<path d="M1600.43 358.096C1600.02 358.096 1599.61 358.006 1599.25 357.78C1597.49 356.74 1597.53 353.487 1599.34 350.279C1600.2 348.787 1601.28 347.612 1602.46 346.844C1603.73 346.076 1604.9 345.895 1605.76 346.438C1607.52 347.477 1607.48 350.73 1605.67 353.939C1604.22 356.469 1602.14 358.096 1600.43 358.096ZM1604.67 347.115C1604.18 347.115 1603.64 347.296 1603 347.703C1601.96 348.335 1600.97 349.465 1600.2 350.776C1598.66 353.396 1598.48 356.243 1599.75 356.966C1601.01 357.689 1603.36 356.108 1604.9 353.487C1606.44 350.866 1606.62 348.019 1605.35 347.296C1605.17 347.161 1604.9 347.115 1604.67 347.115Z" fill="#F18C7E"/>
<path d="M1545.83 256.514C1541.08 256.379 1537.46 255.881 1534.75 252.718L1526.3 242.867L1523.86 240.021L1509.4 223.166L1516.99 242.867L1521.55 254.707L1523 258.457C1524 260.988 1522.68 262.163 1521.78 265.145C1521.42 266.365 1518.93 273.776 1525.4 273.821C1533.49 273.866 1543.75 264.557 1545.96 256.514C1545.92 256.514 1545.87 256.514 1545.83 256.514Z" fill="#FDAD9B"/>
<path d="M1528.65 236.541C1528.65 236.541 1544.61 221.358 1535.39 208.57C1526.21 195.782 1523.9 229.13 1523.9 229.13L1526.48 236.858L1528.65 236.541Z" fill="#66192D"/>
<path d="M1526.21 242.552C1526.26 242.642 1526.26 242.777 1526.3 242.913C1527.79 249.556 1521.6 254.752 1521.6 254.752L1521.55 254.707L1516.99 242.868C1518.93 241.422 1521.78 239.705 1523.86 240.021C1524.9 240.157 1525.8 240.925 1526.21 242.552Z" fill="#66192D"/>
<path d="M1492.49 234.282C1488.88 222.443 1493.94 210.423 1503.79 207.44C1513.6 204.458 1524.49 211.643 1528.11 223.482C1531.72 235.321 1526.66 247.341 1516.81 250.323C1506.96 253.351 1496.06 246.166 1492.49 234.282Z" fill="#FDAD9B"/>
<path d="M1524.72 221.81C1524.72 221.81 1519.66 225.47 1515.41 222.398C1511.16 219.325 1508.13 216.388 1498.64 221.132C1489.1 225.877 1478.71 223.753 1476.76 218.421C1474.82 213.089 1479.38 208.977 1485.35 209.248C1491.32 209.519 1484.08 206.266 1488.24 200.662C1492.4 195.059 1502.98 200.843 1508.18 198.041C1513.42 195.24 1532.04 192.845 1535.39 208.661L1524.72 221.81Z" fill="#66192D"/>
<path d="M1528.7 224.973C1527.48 226.826 1525.13 227.458 1523.45 226.374C1521.78 225.289 1521.42 222.894 1522.64 220.997C1523.86 219.144 1526.21 218.511 1527.88 219.596C1529.55 220.68 1529.92 223.075 1528.7 224.973Z" fill="#FDAD9B"/>
<path d="M1487.25 216.523C1486.89 216.523 1486.57 216.478 1486.21 216.387C1484.08 215.845 1483.45 214.715 1483.63 213.857C1483.81 212.863 1485.03 211.914 1486.93 212.095C1489.78 212.366 1491.32 211.417 1491.36 211.417L1491.72 212.004C1491.63 212.049 1489.96 213.089 1486.89 212.772C1485.49 212.637 1484.45 213.269 1484.36 213.947C1484.22 214.67 1485.03 215.303 1486.44 215.664C1490.1 216.568 1496.42 210.92 1496.51 210.875L1496.97 211.372C1496.65 211.688 1491.23 216.523 1487.25 216.523Z" fill="white"/>
<path d="M1503.7 203.283C1499.81 203.283 1496.38 201.611 1496.06 201.295L1496.6 200.843L1496.33 201.069L1496.56 200.843C1496.92 201.159 1502.57 203.87 1507.41 201.973C1509.03 201.34 1510.44 200.617 1511.84 199.894C1514.64 198.403 1517.08 197.137 1519.88 197.68L1519.75 198.358C1517.22 197.86 1514.87 199.081 1512.15 200.481C1510.75 201.204 1509.31 201.973 1507.68 202.605C1506.37 203.057 1505.01 203.283 1503.7 203.283Z" fill="white"/>
<path d="M1530.55 207.758C1529.51 207.758 1527.61 206.176 1527.11 205.181C1526.75 204.458 1527.11 204.096 1527.29 204.006C1528.7 203.147 1530.68 205.859 1531.09 206.402L1531.14 206.447V206.492C1531.36 207.351 1531 207.622 1530.77 207.712C1530.77 207.758 1530.68 207.758 1530.55 207.758ZM1527.93 204.548C1527.84 204.548 1527.75 204.548 1527.7 204.594C1527.66 204.639 1527.75 205.046 1528.42 205.724C1529.37 206.673 1530.32 207.125 1530.55 207.08C1530.55 207.08 1530.55 206.989 1530.5 206.763C1529.83 205.769 1528.65 204.548 1527.93 204.548Z" fill="white"/>
<path d="M1640.38 426.782C1638.98 426.782 1637.67 426.42 1636.45 425.742C1634.42 424.568 1633.01 422.534 1632.56 420.049C1632.11 417.563 1632.61 414.897 1633.92 412.593C1636.72 407.758 1642.42 405.769 1646.57 408.164C1650.78 410.605 1651.91 416.479 1649.11 421.359C1647.75 423.709 1645.72 425.426 1643.32 426.285C1642.37 426.646 1641.33 426.782 1640.38 426.782ZM1642.69 408.074C1639.7 408.074 1636.54 409.882 1634.73 413.045C1633.51 415.169 1633.06 417.609 1633.47 419.868C1633.87 422.082 1635.09 423.89 1636.9 424.929C1638.71 425.968 1640.88 426.104 1643 425.381C1645.17 424.613 1647.03 423.031 1648.29 420.862C1650.82 416.479 1649.87 411.102 1646.12 408.978C1645.08 408.345 1643.91 408.074 1642.69 408.074Z" fill="#66192D"/>
<path d="M1521.78 282.723L1521.74 281.548C1542.48 280.961 1549.98 263.157 1550.07 262.976L1551.16 263.428C1551.07 263.609 1549.22 268.173 1544.65 272.872C1540.4 277.21 1532.99 282.407 1521.78 282.723Z" fill="#66192D"/>
<path d="M1531.68 292.71L1531.05 291.716C1531.14 291.67 1541.76 284.937 1543.11 272.917L1544.29 273.053C1542.84 285.615 1531.77 292.619 1531.68 292.71Z" fill="#66192D"/>
<path d="M1487.41 298.009L1483.14 310.876L1484.25 311.246L1488.52 298.38L1487.41 298.009Z" fill="#66192D"/>
<path d="M1444.9 341.602C1444.67 341.602 1444.45 341.512 1444.31 341.331C1443.41 340.156 1442.41 338.982 1441.46 337.852C1441.19 337.536 1441.24 337.039 1441.55 336.767C1441.87 336.496 1442.37 336.541 1442.64 336.858C1443.63 337.987 1444.58 339.208 1445.53 340.382C1445.8 340.699 1445.71 341.196 1445.39 341.422C1445.21 341.512 1445.08 341.602 1444.9 341.602Z" fill="#FF8548"/>
<path d="M1341.62 678.568C1341.21 678.568 1340.85 678.251 1340.85 677.799C1340.85 677.393 1341.17 677.031 1341.62 677.031C1344.56 676.986 1347.59 676.941 1350.61 676.805C1351.02 676.76 1351.38 677.122 1351.38 677.528C1351.38 677.935 1351.07 678.296 1350.66 678.296C1347.63 678.477 1344.56 678.568 1341.62 678.568ZM1332.62 678.522C1329.6 678.432 1326.52 678.296 1323.58 678.116C1323.18 678.07 1322.86 677.754 1322.86 677.302C1322.91 676.896 1323.27 676.579 1323.68 676.579C1326.61 676.76 1329.64 676.896 1332.62 676.941C1333.03 676.941 1333.39 677.302 1333.35 677.709C1333.35 678.206 1333.03 678.522 1332.62 678.522ZM1359.61 677.845C1359.2 677.845 1358.88 677.528 1358.84 677.167C1358.79 676.76 1359.11 676.398 1359.52 676.353C1362.46 676.127 1365.48 675.856 1368.47 675.585C1368.87 675.54 1369.24 675.856 1369.28 676.263C1369.33 676.67 1369.01 677.031 1368.6 677.076C1365.62 677.393 1362.59 677.664 1359.61 677.845ZM1314.64 677.393C1314.59 677.393 1314.59 677.393 1314.54 677.393C1311.52 677.076 1308.53 676.715 1305.6 676.308C1305.19 676.263 1304.92 675.856 1304.96 675.45C1305.01 675.043 1305.41 674.772 1305.82 674.817C1308.71 675.224 1311.74 675.585 1314.73 675.901C1315.13 675.947 1315.45 676.308 1315.4 676.715C1315.36 677.121 1315.04 677.393 1314.64 677.393ZM1377.51 675.992C1377.14 675.992 1376.83 675.721 1376.74 675.314C1376.69 674.907 1376.96 674.501 1377.37 674.455C1380.31 674.094 1383.29 673.642 1386.28 673.19C1386.68 673.145 1387.09 673.416 1387.13 673.823C1387.18 674.229 1386.91 674.636 1386.5 674.681C1383.52 675.133 1380.53 675.585 1377.55 675.947C1377.55 675.992 1377.51 675.992 1377.51 675.992ZM1296.83 674.862C1296.78 674.862 1296.74 674.862 1296.69 674.862C1293.71 674.32 1290.73 673.687 1287.83 673.009C1287.43 672.919 1287.15 672.512 1287.29 672.106C1287.38 671.699 1287.79 671.428 1288.19 671.563C1291.04 672.241 1294.02 672.874 1296.96 673.416C1297.37 673.506 1297.64 673.868 1297.55 674.275C1297.51 674.636 1297.19 674.862 1296.83 674.862ZM1395.27 673.235C1394.91 673.235 1394.59 672.964 1394.55 672.603C1394.46 672.196 1394.73 671.789 1395.13 671.744C1398.03 671.202 1401.01 670.614 1403.95 670.027C1404.35 669.937 1404.76 670.208 1404.85 670.614C1404.94 671.021 1404.67 671.428 1404.26 671.518C1401.33 672.151 1398.34 672.693 1395.41 673.235C1395.36 673.235 1395.31 673.235 1395.27 673.235ZM1279.34 670.705C1279.24 670.705 1279.2 670.705 1279.11 670.66C1276.22 669.801 1273.32 668.897 1270.48 667.948C1270.07 667.813 1269.89 667.361 1270.02 666.999C1270.16 666.593 1270.61 666.412 1270.97 666.548C1273.78 667.497 1276.62 668.4 1279.52 669.259C1279.92 669.394 1280.15 669.801 1280.01 670.208C1279.97 670.524 1279.65 670.705 1279.34 670.705ZM1412.9 669.575C1412.54 669.575 1412.26 669.349 1412.17 668.988C1412.08 668.581 1412.35 668.174 1412.72 668.084C1415.61 667.406 1418.55 666.683 1421.44 665.96C1421.85 665.87 1422.25 666.096 1422.34 666.502C1422.43 666.909 1422.21 667.316 1421.8 667.406C1418.91 668.129 1415.93 668.852 1413.03 669.53C1413.03 669.575 1412.94 669.575 1412.9 669.575ZM1430.34 665.102C1430.03 665.102 1429.71 664.876 1429.62 664.559C1429.53 664.153 1429.76 663.746 1430.16 663.61C1433.06 662.797 1435.95 661.938 1438.8 661.08C1439.2 660.944 1439.61 661.17 1439.75 661.577C1439.88 661.984 1439.65 662.39 1439.25 662.526C1436.4 663.384 1433.46 664.243 1430.57 665.056C1430.48 665.102 1430.43 665.102 1430.34 665.102ZM1262.34 664.83C1262.25 664.83 1262.16 664.83 1262.07 664.785C1259.27 663.656 1256.51 662.435 1253.8 661.125C1253.44 660.944 1253.26 660.492 1253.44 660.131C1253.62 659.769 1254.07 659.589 1254.43 659.769C1257.1 661.035 1259.85 662.255 1262.61 663.384C1263.02 663.52 1263.2 663.972 1263.02 664.379C1262.88 664.65 1262.61 664.83 1262.34 664.83ZM1447.56 659.86C1447.25 659.86 1446.93 659.679 1446.84 659.363C1446.71 658.956 1446.93 658.549 1447.34 658.414C1450.23 657.465 1453.08 656.471 1455.84 655.477C1456.24 655.341 1456.65 655.522 1456.79 655.928C1456.92 656.335 1456.74 656.742 1456.33 656.877C1453.58 657.871 1450.68 658.866 1447.79 659.815C1447.75 659.86 1447.65 659.86 1447.56 659.86ZM1246.07 657.103C1245.93 657.103 1245.84 657.058 1245.71 657.013C1243.09 655.567 1240.46 654.031 1237.93 652.404C1237.57 652.178 1237.48 651.726 1237.71 651.365C1237.93 651.003 1238.39 650.913 1238.75 651.139C1241.23 652.72 1243.85 654.257 1246.48 655.703C1246.84 655.883 1246.97 656.38 1246.79 656.742C1246.61 656.968 1246.34 657.103 1246.07 657.103ZM1230.88 647.524C1230.75 647.524 1230.57 647.478 1230.43 647.388C1227.99 645.626 1225.59 643.773 1223.24 641.875C1222.93 641.604 1222.88 641.152 1223.15 640.791C1223.42 640.474 1223.88 640.429 1224.19 640.7C1226.5 642.598 1228.89 644.406 1231.29 646.123C1231.61 646.349 1231.7 646.846 1231.47 647.162C1231.33 647.433 1231.11 647.524 1230.88 647.524ZM1216.96 636.136C1216.78 636.136 1216.6 636.091 1216.46 635.955C1215.88 635.413 1215.33 634.916 1214.79 634.374C1213.16 632.838 1211.54 631.211 1210.05 629.629C1209.77 629.313 1209.77 628.861 1210.05 628.545C1210.36 628.274 1210.81 628.274 1211.13 628.545C1212.62 630.126 1214.25 631.708 1215.83 633.244C1216.37 633.786 1216.96 634.284 1217.5 634.826C1217.82 635.097 1217.82 635.594 1217.55 635.91C1217.37 636.091 1217.14 636.136 1216.96 636.136ZM1204.49 623.167C1204.26 623.167 1204.08 623.077 1203.9 622.896C1201.96 620.546 1200.06 618.151 1198.34 615.757C1198.11 615.44 1198.16 614.943 1198.52 614.717C1198.84 614.491 1199.33 614.536 1199.56 614.898C1201.28 617.248 1203.13 619.643 1205.07 621.947C1205.35 622.264 1205.3 622.761 1204.98 623.032C1204.85 623.122 1204.67 623.167 1204.49 623.167ZM1193.96 608.617C1193.68 608.617 1193.46 608.481 1193.32 608.255C1191.74 605.68 1190.25 603.014 1188.89 600.348C1188.71 599.986 1188.85 599.534 1189.21 599.353C1189.57 599.173 1190.02 599.308 1190.2 599.67C1191.51 602.291 1193.01 604.911 1194.59 607.442C1194.81 607.803 1194.68 608.255 1194.36 608.481C1194.23 608.572 1194.09 608.617 1193.96 608.617ZM1185.82 592.62C1185.5 592.62 1185.23 592.44 1185.1 592.169C1183.97 589.367 1182.97 586.475 1182.11 583.628C1181.98 583.221 1182.2 582.815 1182.61 582.679C1183.02 582.544 1183.42 582.769 1183.56 583.176C1184.42 585.978 1185.41 588.825 1186.5 591.581C1186.63 591.988 1186.45 592.394 1186.09 592.575C1186 592.575 1185.91 592.62 1185.82 592.62ZM1180.67 575.404C1180.31 575.404 1179.99 575.178 1179.94 574.816C1179.36 571.879 1178.9 568.852 1178.59 565.869C1178.54 565.463 1178.86 565.101 1179.27 565.056C1179.67 565.011 1180.03 565.327 1180.08 565.734C1180.4 568.671 1180.85 571.653 1181.44 574.545C1181.53 574.952 1181.25 575.359 1180.85 575.449C1180.76 575.404 1180.71 575.404 1180.67 575.404ZM1178.77 557.509C1178.36 557.509 1178 557.193 1178 556.741C1178 556.47 1178 556.199 1178 555.928C1178 553.171 1178.14 550.415 1178.36 547.659C1178.41 547.252 1178.77 546.936 1179.18 546.981C1179.58 547.026 1179.9 547.387 1179.85 547.794C1179.63 550.505 1179.49 553.217 1179.49 555.928C1179.49 556.199 1179.49 556.47 1179.49 556.696C1179.54 557.193 1179.22 557.509 1178.77 557.509ZM1180.31 539.615C1180.26 539.615 1180.21 539.615 1180.17 539.615C1179.76 539.525 1179.49 539.163 1179.58 538.757C1180.12 535.819 1180.8 532.837 1181.57 529.9C1181.66 529.493 1182.11 529.267 1182.52 529.358C1182.93 529.448 1183.15 529.9 1183.06 530.306C1182.29 533.153 1181.62 536.091 1181.07 539.028C1180.98 539.389 1180.67 539.615 1180.31 539.615ZM1244.13 539.57C1242.05 539.57 1239.97 539.434 1237.89 539.163C1237.48 539.118 1237.16 538.757 1237.21 538.305C1237.26 537.898 1237.66 537.582 1238.07 537.627C1241.01 537.988 1243.99 538.079 1246.93 537.898C1247.33 537.853 1247.7 538.169 1247.74 538.621C1247.79 539.028 1247.47 539.389 1247.02 539.434C1246.02 539.57 1245.07 539.57 1244.13 539.57ZM1255.83 538.079C1255.52 538.079 1255.2 537.853 1255.11 537.537C1255.02 537.13 1255.24 536.723 1255.65 536.633C1258.54 535.865 1261.35 534.78 1263.88 533.47C1264.24 533.289 1264.69 533.424 1264.92 533.786C1265.1 534.147 1264.96 534.599 1264.6 534.825C1261.98 536.226 1259.09 537.311 1256.06 538.124C1255.97 538.079 1255.88 538.079 1255.83 538.079ZM1229.21 537.311C1229.12 537.311 1229.07 537.311 1228.98 537.265C1226.09 536.362 1223.24 535.232 1220.53 533.876C1220.17 533.696 1219.99 533.244 1220.22 532.882C1220.4 532.521 1220.85 532.34 1221.21 532.566C1223.88 533.876 1226.63 535.006 1229.44 535.865C1229.84 536 1230.07 536.407 1229.93 536.814C1229.8 537.13 1229.53 537.311 1229.21 537.311ZM1271.56 529.719C1271.38 529.719 1271.15 529.629 1271.02 529.493C1270.75 529.177 1270.75 528.725 1271.06 528.409C1273.23 526.375 1275.09 524.116 1276.53 521.585C1276.76 521.224 1277.21 521.088 1277.57 521.314C1277.93 521.54 1278.07 521.992 1277.84 522.353C1276.31 524.974 1274.41 527.369 1272.1 529.493C1271.92 529.629 1271.74 529.719 1271.56 529.719ZM1213.16 529.358C1213.03 529.358 1212.85 529.312 1212.71 529.222C1210.27 527.46 1207.92 525.517 1205.75 523.393C1205.44 523.122 1205.44 522.625 1205.75 522.308C1206.02 521.992 1206.52 521.992 1206.84 522.308C1208.96 524.387 1211.27 526.33 1213.62 528.002C1213.93 528.228 1214.02 528.725 1213.8 529.041C1213.62 529.222 1213.39 529.358 1213.16 529.358ZM1185.1 522.308C1185.01 522.308 1184.92 522.308 1184.82 522.263C1184.42 522.127 1184.24 521.676 1184.37 521.314C1185.41 518.512 1186.59 515.711 1187.9 512.954C1188.08 512.593 1188.53 512.412 1188.89 512.593C1189.25 512.774 1189.44 513.226 1189.25 513.587C1187.99 516.253 1186.81 519.055 1185.77 521.811C1185.68 522.127 1185.37 522.308 1185.1 522.308ZM1200.28 516.886C1200.06 516.886 1199.83 516.795 1199.7 516.615C1197.89 514.265 1196.17 511.734 1194.59 509.113C1194.36 508.752 1194.5 508.3 1194.86 508.074C1195.22 507.848 1195.67 507.984 1195.9 508.345C1197.44 510.921 1199.11 513.406 1200.92 515.711C1201.19 516.027 1201.1 516.524 1200.78 516.75C1200.6 516.795 1200.46 516.886 1200.28 516.886ZM1280.37 514.4C1280.33 514.4 1280.28 514.4 1280.19 514.4C1279.79 514.31 1279.52 513.903 1279.61 513.497C1280.06 511.373 1280.28 509.159 1280.28 506.899C1280.28 506.176 1280.28 505.498 1280.24 504.775C1280.19 504.369 1280.51 504.007 1280.96 503.962C1281.37 503.917 1281.73 504.233 1281.78 504.685C1281.82 505.408 1281.87 506.176 1281.87 506.899C1281.87 509.249 1281.64 511.599 1281.14 513.813C1281.05 514.129 1280.74 514.4 1280.37 514.4ZM1192.78 506.086C1192.64 506.086 1192.51 506.041 1192.42 505.995C1192.06 505.77 1191.92 505.318 1192.15 504.956C1193.68 502.335 1195.31 499.805 1197.07 497.365C1197.3 497.003 1197.8 496.958 1198.11 497.184C1198.47 497.41 1198.52 497.907 1198.29 498.223C1196.58 500.618 1194.95 503.149 1193.46 505.724C1193.32 505.95 1193.05 506.086 1192.78 506.086ZM1191.11 501.477C1190.84 501.477 1190.57 501.296 1190.43 501.025C1189.21 498.359 1188.12 495.512 1187.13 492.575C1186.99 492.168 1187.22 491.761 1187.63 491.626C1188.03 491.49 1188.44 491.716 1188.58 492.123C1189.53 494.97 1190.66 497.771 1191.83 500.437C1192.01 500.799 1191.83 501.251 1191.47 501.432C1191.33 501.432 1191.2 501.477 1191.11 501.477ZM1279.47 496.596C1279.15 496.596 1278.84 496.37 1278.75 496.054C1278.66 495.738 1278.57 495.422 1278.48 495.15C1277.66 492.53 1276.71 490.044 1275.67 487.74C1275.49 487.378 1275.67 486.926 1276.04 486.745C1276.4 486.565 1276.85 486.745 1277.03 487.107C1278.11 489.457 1279.06 491.987 1279.92 494.699C1280.01 495.015 1280.1 495.331 1280.19 495.648C1280.33 496.054 1280.06 496.461 1279.7 496.596C1279.61 496.596 1279.52 496.596 1279.47 496.596ZM1203.22 491.445C1203.04 491.445 1202.86 491.4 1202.72 491.264C1202.41 490.993 1202.36 490.496 1202.63 490.18C1204.62 487.875 1206.75 485.661 1208.87 483.582C1209.19 483.311 1209.64 483.311 1209.96 483.628C1210.23 483.944 1210.23 484.396 1209.91 484.712C1207.79 486.745 1205.75 488.915 1203.76 491.174C1203.67 491.355 1203.45 491.445 1203.22 491.445ZM1185.32 484.441C1184.96 484.441 1184.69 484.215 1184.6 483.853C1183.92 481.007 1183.29 478.024 1182.79 474.997C1182.75 474.59 1183.02 474.183 1183.42 474.138C1183.83 474.048 1184.24 474.364 1184.28 474.771C1184.78 477.753 1185.37 480.69 1186.05 483.537C1186.14 483.944 1185.91 484.351 1185.5 484.441C1185.46 484.441 1185.41 484.441 1185.32 484.441ZM1271.88 480.374C1271.65 480.374 1271.43 480.284 1271.24 480.058C1269.48 477.572 1267.45 475.403 1265.32 473.596C1265.01 473.325 1264.96 472.873 1265.23 472.511C1265.5 472.195 1265.96 472.15 1266.32 472.421C1268.58 474.319 1270.66 476.578 1272.51 479.154C1272.74 479.515 1272.69 479.967 1272.33 480.193C1272.15 480.329 1272.01 480.374 1271.88 480.374ZM1216.24 479.064C1216.01 479.064 1215.79 478.973 1215.65 478.747C1215.38 478.431 1215.47 477.934 1215.79 477.708C1218.27 475.81 1220.8 474.093 1223.33 472.647C1223.7 472.421 1224.15 472.557 1224.37 472.918C1224.6 473.28 1224.46 473.731 1224.1 473.957C1221.62 475.403 1219.13 477.075 1216.74 478.928C1216.55 479.018 1216.42 479.064 1216.24 479.064ZM1231.79 470.116C1231.47 470.116 1231.2 469.936 1231.06 469.619C1230.93 469.213 1231.11 468.806 1231.47 468.625C1234.41 467.45 1237.39 466.637 1240.24 466.095C1240.65 466.004 1241.05 466.275 1241.1 466.727C1241.19 467.134 1240.92 467.541 1240.46 467.586C1237.71 468.083 1234.81 468.896 1231.97 470.026C1231.97 470.071 1231.88 470.116 1231.79 470.116ZM1258.09 469.167C1258 469.167 1257.91 469.167 1257.82 469.122C1255.15 468.038 1252.31 467.405 1249.32 467.134C1248.92 467.089 1248.6 466.727 1248.65 466.321C1248.69 465.914 1249.05 465.598 1249.46 465.643C1252.58 465.869 1255.61 466.592 1258.41 467.721C1258.82 467.857 1259 468.309 1258.82 468.716C1258.68 468.987 1258.41 469.167 1258.09 469.167ZM1182.43 466.727C1182.02 466.727 1181.71 466.456 1181.66 466.05C1181.39 463.112 1181.16 460.085 1181.07 457.057C1181.07 456.65 1181.39 456.289 1181.8 456.289C1182.2 456.289 1182.57 456.605 1182.57 457.012C1182.66 460.04 1182.88 463.022 1183.15 465.959C1183.2 466.366 1182.88 466.727 1182.47 466.773C1182.47 466.727 1182.43 466.727 1182.43 466.727ZM1181.75 448.743C1181.3 448.743 1180.98 448.381 1180.98 447.974C1181.03 445.037 1181.16 442.01 1181.34 438.937C1181.39 438.53 1181.75 438.214 1182.16 438.214C1182.57 438.259 1182.88 438.621 1182.88 439.027C1182.7 442.055 1182.57 445.082 1182.52 447.974C1182.47 448.426 1182.16 448.743 1181.75 448.743ZM1182.84 430.803C1182.79 430.803 1182.79 430.803 1182.75 430.803C1182.34 430.758 1182.02 430.396 1182.07 429.99C1182.38 426.962 1182.79 423.98 1183.24 421.043C1183.29 420.636 1183.7 420.365 1184.1 420.41C1184.51 420.455 1184.78 420.862 1184.73 421.268C1184.28 424.16 1183.88 427.143 1183.56 430.125C1183.56 430.532 1183.24 430.803 1182.84 430.803ZM1185.68 413.044C1185.64 413.044 1185.59 413.044 1185.5 413.044C1185.1 412.954 1184.82 412.547 1184.92 412.141C1185.55 409.203 1186.27 406.221 1187.08 403.374C1187.18 402.967 1187.63 402.741 1188.03 402.832C1188.44 402.922 1188.67 403.374 1188.58 403.781C1187.81 406.628 1187.08 409.52 1186.45 412.457C1186.36 412.818 1186.05 413.044 1185.68 413.044ZM1190.47 395.737C1190.38 395.737 1190.29 395.737 1190.25 395.692C1189.84 395.557 1189.66 395.15 1189.8 394.743C1190.79 391.896 1191.83 389.05 1192.96 386.293C1193.14 385.886 1193.55 385.706 1193.96 385.886C1194.36 386.067 1194.54 386.474 1194.36 386.881C1193.23 389.592 1192.19 392.439 1191.2 395.24C1191.11 395.557 1190.79 395.737 1190.47 395.737ZM1197.34 379.108C1197.25 379.108 1197.12 379.063 1197.03 379.018C1196.67 378.837 1196.49 378.385 1196.67 378.024C1197.98 375.312 1199.38 372.646 1200.87 370.026C1201.1 369.664 1201.55 369.528 1201.91 369.754C1202.27 369.98 1202.41 370.432 1202.18 370.794C1200.73 373.369 1199.33 376.035 1198.02 378.702C1197.89 378.973 1197.62 379.108 1197.34 379.108ZM1206.2 363.519C1206.07 363.519 1205.93 363.473 1205.8 363.383C1205.44 363.157 1205.35 362.705 1205.57 362.344C1207.2 359.858 1208.96 357.373 1210.77 354.978C1211.04 354.662 1211.49 354.571 1211.81 354.842C1212.12 355.114 1212.22 355.565 1211.94 355.882C1210.14 358.232 1208.42 360.717 1206.79 363.202C1206.7 363.383 1206.43 363.519 1206.2 363.519ZM1217.05 349.149C1216.87 349.149 1216.69 349.104 1216.55 348.968C1216.24 348.697 1216.19 348.2 1216.46 347.884C1218.41 345.624 1220.49 343.365 1222.57 341.241C1222.84 340.925 1223.33 340.925 1223.65 341.241C1223.97 341.512 1223.97 342.009 1223.65 342.325C1221.57 344.449 1219.54 346.663 1217.59 348.923C1217.46 349.058 1217.23 349.149 1217.05 349.149ZM1229.62 336.315C1229.39 336.315 1229.21 336.225 1229.07 336.044C1228.8 335.728 1228.8 335.276 1229.12 334.96C1231.33 332.972 1233.68 331.028 1236.03 329.131C1236.35 328.859 1236.85 328.905 1237.07 329.266C1237.35 329.582 1237.3 330.08 1236.94 330.306C1234.59 332.158 1232.28 334.101 1230.11 336.044C1229.98 336.27 1229.8 336.315 1229.62 336.315ZM1435.86 331.526C1435.68 331.526 1435.5 331.435 1435.32 331.3C1433.19 329.266 1430.98 327.233 1428.67 325.335C1428.35 325.064 1428.31 324.612 1428.58 324.25C1428.85 323.934 1429.3 323.889 1429.67 324.16C1432.02 326.103 1434.28 328.091 1436.4 330.17C1436.72 330.441 1436.72 330.938 1436.4 331.254C1436.26 331.48 1436.04 331.526 1435.86 331.526ZM1243.72 325.199C1243.49 325.199 1243.27 325.109 1243.09 324.883C1242.86 324.521 1242.95 324.07 1243.27 323.844C1245.71 322.126 1248.28 320.455 1250.81 318.918C1251.18 318.692 1251.63 318.828 1251.85 319.189C1252.08 319.551 1251.94 320.003 1251.58 320.229C1249.05 321.765 1246.52 323.437 1244.08 325.109C1243.99 325.154 1243.85 325.199 1243.72 325.199ZM1421.98 320.138C1421.85 320.138 1421.67 320.093 1421.53 320.003C1419.13 318.331 1416.6 316.704 1413.98 315.213C1413.62 314.987 1413.48 314.535 1413.71 314.173C1413.94 313.812 1414.39 313.676 1414.75 313.902C1417.37 315.439 1419.95 317.065 1422.39 318.783C1422.75 319.009 1422.8 319.506 1422.57 319.822C1422.43 320.048 1422.21 320.138 1421.98 320.138ZM1259.04 315.8C1258.77 315.8 1258.5 315.665 1258.36 315.394C1258.18 315.032 1258.32 314.58 1258.68 314.354C1261.3 312.953 1264.01 311.598 1266.77 310.333C1267.13 310.152 1267.58 310.333 1267.76 310.694C1267.95 311.056 1267.76 311.507 1267.4 311.688C1264.69 312.953 1261.98 314.309 1259.4 315.665C1259.27 315.8 1259.13 315.8 1259.04 315.8ZM1406.48 311.056C1406.39 311.056 1406.25 311.01 1406.16 310.965C1403.54 309.655 1400.78 308.435 1398.03 307.305C1397.62 307.124 1397.44 306.717 1397.62 306.311C1397.8 305.904 1398.21 305.723 1398.61 305.904C1401.42 307.034 1404.17 308.299 1406.84 309.609C1407.2 309.79 1407.38 310.242 1407.2 310.604C1407.02 310.875 1406.75 311.056 1406.48 311.056ZM1275.36 308.254C1275.04 308.254 1274.77 308.073 1274.63 307.757C1274.5 307.35 1274.68 306.943 1275.04 306.763C1277.8 305.678 1280.69 304.594 1283.54 303.645C1283.95 303.509 1284.35 303.735 1284.49 304.097C1284.62 304.503 1284.4 304.91 1284.04 305.046C1281.19 305.994 1278.39 307.034 1275.63 308.118C1275.54 308.209 1275.45 308.254 1275.36 308.254ZM1389.85 304.232C1389.76 304.232 1389.67 304.232 1389.62 304.187C1386.82 303.238 1383.97 302.379 1381.08 301.611C1380.67 301.521 1380.44 301.069 1380.53 300.708C1380.63 300.301 1381.08 300.075 1381.44 300.165C1384.38 300.933 1387.27 301.837 1390.07 302.786C1390.48 302.922 1390.66 303.328 1390.52 303.735C1390.48 304.006 1390.16 304.232 1389.85 304.232ZM1292.35 302.515C1292.04 302.515 1291.72 302.289 1291.63 301.973C1291.54 301.566 1291.76 301.159 1292.17 301.024C1295.06 300.21 1298 299.487 1300.94 298.81C1301.35 298.719 1301.75 298.99 1301.84 299.397C1301.93 299.804 1301.66 300.21 1301.26 300.301C1298.36 300.933 1295.43 301.702 1292.58 302.47C1292.49 302.515 1292.44 302.515 1292.35 302.515ZM1372.49 299.533C1372.44 299.533 1372.4 299.533 1372.35 299.533C1369.46 298.945 1366.48 298.403 1363.54 297.951C1363.13 297.906 1362.86 297.499 1362.91 297.093C1362.95 296.686 1363.36 296.415 1363.77 296.46C1366.75 296.912 1369.73 297.454 1372.67 298.041C1373.08 298.132 1373.35 298.539 1373.26 298.945C1373.17 299.262 1372.85 299.533 1372.49 299.533ZM1309.93 298.584C1309.57 298.584 1309.26 298.313 1309.21 297.951C1309.12 297.544 1309.44 297.138 1309.84 297.093C1312.78 296.595 1315.81 296.144 1318.79 295.827C1319.2 295.782 1319.56 296.053 1319.65 296.505C1319.7 296.912 1319.43 297.273 1318.97 297.364C1316.04 297.725 1313.05 298.132 1310.12 298.629C1310.03 298.584 1309.98 298.584 1309.93 298.584ZM1354.73 296.867C1354.68 296.867 1354.68 296.867 1354.64 296.867C1351.7 296.595 1348.67 296.415 1345.69 296.279C1345.28 296.279 1344.96 295.918 1344.96 295.511C1344.96 295.104 1345.33 294.788 1345.73 294.788C1348.72 294.923 1351.79 295.104 1354.73 295.375C1355.13 295.421 1355.45 295.782 1355.4 296.189C1355.45 296.595 1355.09 296.867 1354.73 296.867ZM1327.79 296.505C1327.38 296.505 1327.06 296.189 1327.02 295.782C1326.97 295.375 1327.29 295.014 1327.74 294.969C1330.73 294.788 1333.75 294.652 1336.78 294.607C1337.19 294.607 1337.55 294.923 1337.55 295.33C1337.55 295.737 1337.23 296.098 1336.83 296.098C1333.84 296.144 1330.86 296.234 1327.88 296.46C1327.79 296.505 1327.79 296.505 1327.79 296.505Z" fill="#FF8548"/>
<path d="M1464.88 653.67C1464.56 653.67 1464.29 653.489 1464.15 653.172C1464.02 652.766 1464.2 652.359 1464.56 652.178C1467.23 651.138 1468.72 650.46 1468.72 650.46C1469.08 650.28 1469.53 650.46 1469.71 650.867C1469.89 651.229 1469.71 651.681 1469.3 651.862C1469.3 651.862 1467.81 652.494 1465.1 653.579C1465.06 653.624 1464.97 653.67 1464.88 653.67Z" fill="#FF8548"/>
<path d="M1506.55 333.197C1506.5 333.197 1506.46 333.197 1506.37 333.197C1505.96 333.107 1505.69 332.7 1505.78 332.293C1506.1 330.802 1506.5 329.311 1507 327.865C1507.14 327.458 1507.54 327.232 1507.95 327.368C1508.36 327.504 1508.58 327.91 1508.45 328.317C1507.99 329.718 1507.59 331.164 1507.27 332.61C1507.23 332.971 1506.91 333.197 1506.55 333.197Z" fill="#66192D"/>
<path d="M1709.22 546.303C1708.9 546.303 1708.63 546.122 1708.5 545.806C1708.36 545.399 1708.54 544.992 1708.95 544.811C1711.61 543.817 1714.33 542.552 1716.99 541.106C1717.35 540.925 1717.81 541.061 1718.03 541.422C1718.21 541.784 1718.08 542.236 1717.72 542.462C1715 543.953 1712.25 545.218 1709.49 546.258C1709.4 546.303 1709.31 546.303 1709.22 546.303ZM1724.95 537.807C1724.72 537.807 1724.5 537.717 1724.32 537.491C1724.09 537.175 1724.13 536.678 1724.5 536.452C1726.89 534.735 1729.2 532.837 1731.37 530.848C1731.68 530.577 1732.13 530.577 1732.45 530.894C1732.77 531.21 1732.72 531.662 1732.41 531.978C1730.19 534.012 1727.84 535.91 1725.4 537.672C1725.22 537.762 1725.08 537.807 1724.95 537.807ZM1738.06 525.697C1737.87 525.697 1737.69 525.652 1737.56 525.516C1737.24 525.245 1737.2 524.793 1737.47 524.432C1739.37 522.172 1741.13 519.777 1742.71 517.292C1742.94 516.931 1743.39 516.84 1743.75 517.066C1744.11 517.292 1744.2 517.744 1743.98 518.105C1742.35 520.636 1740.54 523.076 1738.6 525.381C1738.51 525.607 1738.28 525.697 1738.06 525.697ZM1747.68 510.65C1747.59 510.65 1747.46 510.604 1747.37 510.559C1747.01 510.378 1746.82 509.927 1747.01 509.565C1748.23 506.899 1749.31 504.143 1750.17 501.296C1750.3 500.889 1750.71 500.663 1751.12 500.799C1751.52 500.934 1751.75 501.341 1751.62 501.748C1750.71 504.64 1749.63 507.486 1748.36 510.198C1748.23 510.469 1747.95 510.65 1747.68 510.65ZM1752.97 493.614C1752.93 493.614 1752.88 493.614 1752.84 493.614C1752.43 493.523 1752.16 493.162 1752.2 492.755C1752.7 489.908 1753.02 486.926 1753.2 483.944C1753.2 483.537 1753.56 483.221 1754.01 483.221C1754.42 483.221 1754.73 483.582 1754.73 484.034C1754.6 487.062 1754.24 490.089 1753.74 493.026C1753.65 493.343 1753.33 493.614 1752.97 493.614ZM1753.92 475.765C1753.51 475.765 1753.2 475.448 1753.15 475.042C1752.97 472.15 1752.65 469.212 1752.2 466.23C1752.16 465.823 1752.43 465.417 1752.84 465.371C1753.24 465.326 1753.65 465.597 1753.69 466.004C1754.19 469.032 1754.51 472.059 1754.69 474.951C1754.69 475.403 1754.37 475.765 1753.92 475.765ZM1751.16 458.096C1750.8 458.096 1750.53 457.87 1750.44 457.509C1749.76 454.707 1748.95 451.815 1748 448.968C1747.86 448.562 1748.09 448.155 1748.5 448.019C1748.9 447.884 1749.31 448.11 1749.45 448.516C1750.4 451.408 1751.21 454.346 1751.93 457.192C1752.02 457.599 1751.8 458.006 1751.39 458.096C1751.3 458.096 1751.21 458.096 1751.16 458.096ZM1745.74 441.06C1745.42 441.06 1745.11 440.88 1745.02 440.518C1744.07 437.626 1743.3 434.689 1742.67 431.797C1742.58 431.39 1742.85 430.984 1743.25 430.893C1743.66 430.803 1744.07 431.074 1744.16 431.481C1744.75 434.327 1745.56 437.219 1746.46 440.021C1746.6 440.428 1746.37 440.834 1745.97 440.97C1745.92 441.06 1745.83 441.06 1745.74 441.06ZM1742.03 423.573C1741.67 423.573 1741.31 423.302 1741.26 422.895C1740.99 420.319 1740.86 417.698 1740.86 415.123C1740.86 414.716 1740.86 414.264 1740.86 413.857C1740.86 413.451 1741.22 413.134 1741.63 413.134C1742.03 413.134 1742.39 413.496 1742.35 413.903C1742.35 414.309 1742.35 414.716 1742.35 415.123C1742.35 417.653 1742.49 420.229 1742.71 422.759C1742.76 423.166 1742.44 423.528 1742.03 423.573ZM1742.3 405.724C1742.26 405.724 1742.26 405.724 1742.21 405.724C1741.81 405.678 1741.49 405.272 1741.58 404.865C1741.99 401.883 1742.58 398.9 1743.34 396.008C1743.43 395.602 1743.84 395.376 1744.25 395.466C1744.65 395.556 1744.88 395.963 1744.79 396.37C1744.07 399.217 1743.48 402.154 1743.07 405.046C1743.03 405.452 1742.71 405.724 1742.3 405.724ZM1804.9 404.594C1804.5 404.594 1804.14 404.278 1804.14 403.871C1804.14 403.464 1804.45 403.103 1804.86 403.103C1807.89 403.057 1810.83 402.832 1813.67 402.38C1814.08 402.335 1814.49 402.606 1814.53 403.012C1814.58 403.419 1814.31 403.826 1813.9 403.871C1811.01 404.278 1807.98 404.549 1804.9 404.594ZM1795.96 404.232C1795.91 404.232 1795.91 404.232 1795.86 404.232C1792.93 403.961 1789.9 403.509 1786.92 402.877C1786.51 402.786 1786.24 402.38 1786.33 401.973C1786.42 401.566 1786.83 401.295 1787.23 401.386C1790.17 401.973 1793.11 402.425 1796 402.696C1796.41 402.741 1796.72 403.103 1796.68 403.509C1796.68 403.916 1796.36 404.232 1795.96 404.232ZM1822.53 401.928C1822.22 401.928 1821.9 401.702 1821.81 401.386C1821.67 400.979 1821.9 400.572 1822.31 400.437C1825.24 399.533 1828 398.403 1830.44 397.048C1830.8 396.867 1831.26 397.002 1831.48 397.364C1831.66 397.725 1831.53 398.177 1831.16 398.403C1828.63 399.759 1825.83 400.934 1822.76 401.883C1822.71 401.928 1822.62 401.928 1822.53 401.928ZM1778.42 400.663C1778.33 400.663 1778.28 400.663 1778.19 400.617C1775.34 399.714 1772.5 398.674 1769.74 397.499C1769.38 397.319 1769.2 396.912 1769.33 396.505C1769.51 396.144 1769.92 395.963 1770.33 396.099C1773.04 397.228 1775.84 398.268 1778.64 399.171C1779.05 399.307 1779.28 399.714 1779.14 400.12C1779.05 400.437 1778.78 400.663 1778.42 400.663ZM1761.97 393.704C1761.83 393.704 1761.74 393.658 1761.6 393.613C1758.98 392.167 1756.36 390.631 1753.88 388.914C1753.51 388.688 1753.42 388.191 1753.65 387.874C1753.88 387.513 1754.37 387.423 1754.69 387.648C1757.13 389.32 1759.71 390.857 1762.28 392.258C1762.64 392.438 1762.78 392.935 1762.6 393.297C1762.51 393.568 1762.24 393.704 1761.97 393.704ZM1837.99 393.207C1837.81 393.207 1837.58 393.116 1837.45 392.981C1837.13 392.664 1837.13 392.212 1837.45 391.896C1839.62 389.727 1841.2 387.332 1842.24 384.802C1842.37 384.395 1842.83 384.214 1843.23 384.395C1843.64 384.531 1843.82 384.982 1843.64 385.389C1842.55 388.146 1840.84 390.721 1838.53 393.026C1838.4 393.161 1838.17 393.207 1837.99 393.207ZM1746.78 388.462C1746.69 388.462 1746.6 388.462 1746.51 388.417C1746.1 388.281 1745.92 387.829 1746.1 387.423C1747.19 384.621 1748.45 381.864 1749.85 379.198C1750.03 378.837 1750.49 378.701 1750.89 378.882C1751.25 379.063 1751.39 379.515 1751.21 379.921C1749.81 382.542 1748.59 385.254 1747.5 387.965C1747.37 388.281 1747.1 388.462 1746.78 388.462ZM1747.14 383.717C1746.96 383.717 1746.82 383.672 1746.64 383.536C1744.34 381.639 1742.08 379.605 1739.95 377.481C1739.64 377.21 1739.64 376.713 1739.95 376.397C1740.23 376.08 1740.72 376.08 1741.04 376.397C1743.12 378.475 1745.38 380.464 1747.64 382.361C1747.95 382.633 1748 383.085 1747.73 383.446C1747.59 383.627 1747.37 383.717 1747.14 383.717ZM1844.27 377.075C1843.87 377.075 1843.55 376.758 1843.5 376.352C1843.32 373.64 1842.6 370.839 1841.33 367.992C1841.15 367.63 1841.33 367.178 1841.74 366.998C1842.1 366.817 1842.55 366.998 1842.74 367.404C1844.05 370.432 1844.81 373.414 1845 376.261C1845.04 376.668 1844.72 377.029 1844.27 377.075C1844.32 377.075 1844.32 377.075 1844.27 377.075ZM1755.19 372.691C1755.05 372.691 1754.87 372.646 1754.78 372.556C1754.42 372.33 1754.37 371.833 1754.6 371.516C1756.32 369.031 1758.17 366.636 1760.16 364.377C1760.43 364.06 1760.93 364.015 1761.24 364.332C1761.56 364.603 1761.6 365.1 1761.33 365.416C1759.39 367.63 1757.54 369.98 1755.86 372.375C1755.64 372.556 1755.41 372.691 1755.19 372.691ZM1734.44 371.11C1734.21 371.11 1734.03 371.019 1733.85 370.839C1731.95 368.579 1730.1 366.184 1728.38 363.699C1728.16 363.337 1728.25 362.886 1728.56 362.66C1728.93 362.434 1729.38 362.524 1729.6 362.84C1731.32 365.281 1733.13 367.63 1735.03 369.89C1735.3 370.206 1735.25 370.703 1734.94 370.974C1734.8 371.065 1734.62 371.11 1734.44 371.11ZM1837.58 360.762C1837.36 360.762 1837.13 360.671 1836.95 360.445C1835.19 358.005 1833.24 355.746 1831.16 353.803C1830.85 353.532 1830.85 353.035 1831.12 352.718C1831.39 352.402 1831.89 352.402 1832.2 352.673C1834.33 354.661 1836.36 356.966 1838.17 359.497C1838.4 359.813 1838.35 360.31 1837.99 360.536C1837.9 360.671 1837.76 360.762 1837.58 360.762ZM1766.98 359.271C1766.76 359.271 1766.58 359.18 1766.44 358.999C1766.17 358.683 1766.17 358.231 1766.49 357.915C1768.75 355.881 1771.14 354.029 1773.58 352.312C1773.94 352.086 1774.4 352.176 1774.62 352.492C1774.85 352.854 1774.76 353.306 1774.44 353.532C1772.05 355.158 1769.69 357.011 1767.48 358.999C1767.34 359.225 1767.16 359.271 1766.98 359.271ZM1724.18 356.514C1723.91 356.514 1723.68 356.379 1723.55 356.153C1722.06 353.622 1720.61 350.911 1719.3 348.2C1719.12 347.838 1719.25 347.386 1719.66 347.205C1720.02 347.025 1720.47 347.16 1720.65 347.567C1721.97 350.233 1723.37 352.899 1724.81 355.43C1725.04 355.791 1724.9 356.243 1724.54 356.469C1724.45 356.469 1724.32 356.514 1724.18 356.514ZM1781.72 349.194C1781.45 349.194 1781.18 349.058 1781.04 348.787C1780.86 348.425 1780.99 347.974 1781.36 347.793C1784.11 346.392 1786.92 345.262 1789.72 344.359C1790.12 344.223 1790.53 344.449 1790.67 344.856C1790.8 345.262 1790.58 345.669 1790.17 345.805C1787.41 346.708 1784.7 347.838 1781.99 349.148C1781.94 349.148 1781.85 349.194 1781.72 349.194ZM1824.61 348.606C1824.48 348.606 1824.34 348.561 1824.25 348.516C1821.72 347.025 1819.05 345.85 1816.25 344.991C1815.84 344.856 1815.62 344.449 1815.75 344.042C1815.89 343.636 1816.29 343.41 1816.7 343.545C1819.59 344.449 1822.4 345.669 1825.06 347.205C1825.42 347.431 1825.56 347.883 1825.33 348.245C1825.11 348.516 1824.84 348.606 1824.61 348.606ZM1798.71 343.771C1798.35 343.771 1798.03 343.5 1797.94 343.139C1797.9 342.732 1798.17 342.325 1798.58 342.28C1801.65 341.873 1804.72 341.738 1807.66 341.964C1808.07 342.009 1808.38 342.37 1808.38 342.777C1808.38 343.184 1808.02 343.5 1807.57 343.5C1804.72 343.319 1801.74 343.41 1798.8 343.816C1798.76 343.771 1798.71 343.771 1798.71 343.771ZM1716.36 340.427C1716.04 340.427 1715.77 340.247 1715.64 339.93C1714.55 337.174 1713.51 334.327 1712.61 331.48C1712.47 331.073 1712.7 330.667 1713.11 330.531C1713.51 330.396 1713.92 330.622 1714.06 331.028C1714.96 333.875 1715.95 336.677 1717.04 339.388C1717.17 339.795 1716.99 340.201 1716.63 340.382C1716.54 340.427 1716.45 340.427 1716.36 340.427ZM1710.53 323.527C1710.21 323.527 1709.94 323.346 1709.81 323.03C1708.77 320.228 1707.55 317.472 1706.28 314.896C1706.1 314.535 1706.24 314.083 1706.64 313.902C1707 313.721 1707.46 313.857 1707.64 314.264C1708.95 316.93 1710.12 319.686 1711.21 322.533C1711.34 322.94 1711.16 323.346 1710.76 323.527C1710.71 323.482 1710.62 323.527 1710.53 323.527ZM1511.2 320.59C1511.07 320.59 1510.98 320.545 1510.84 320.499C1510.48 320.319 1510.35 319.867 1510.53 319.505C1511.88 316.884 1513.46 314.309 1515.23 311.778C1515.45 311.417 1515.95 311.372 1516.27 311.597C1516.63 311.823 1516.67 312.32 1516.45 312.637C1514.73 315.122 1513.15 317.653 1511.84 320.183C1511.75 320.454 1511.48 320.59 1511.2 320.59ZM1702.67 307.485C1702.39 307.485 1702.17 307.35 1702.03 307.124C1700.45 304.593 1698.78 302.153 1696.97 299.849C1696.7 299.532 1696.79 299.035 1697.11 298.809C1697.42 298.538 1697.92 298.629 1698.15 298.945C1699.95 301.295 1701.72 303.78 1703.3 306.356C1703.52 306.717 1703.39 307.169 1703.07 307.395C1702.94 307.44 1702.8 307.485 1702.67 307.485ZM1521.42 305.949C1521.24 305.949 1521.06 305.904 1520.92 305.768C1520.61 305.497 1520.61 305 1520.88 304.684C1522.82 302.515 1524.99 300.346 1527.25 298.312C1527.57 298.041 1528.02 298.041 1528.33 298.357C1528.61 298.674 1528.61 299.126 1528.29 299.442C1526.07 301.475 1523.95 303.599 1522.01 305.723C1521.83 305.904 1521.64 305.949 1521.42 305.949ZM1534.62 293.929C1534.39 293.929 1534.16 293.839 1534.03 293.613C1533.76 293.296 1533.85 292.799 1534.16 292.573C1536.52 290.811 1539 289.049 1541.53 287.422C1541.89 287.196 1542.35 287.286 1542.57 287.648C1542.8 288.009 1542.71 288.461 1542.35 288.687C1539.81 290.314 1537.37 292.031 1535.07 293.793C1534.93 293.839 1534.8 293.929 1534.62 293.929ZM1691.73 293.387C1691.55 293.387 1691.32 293.296 1691.18 293.161C1689.15 291.037 1686.94 289.004 1684.68 287.151C1684.36 286.88 1684.31 286.428 1684.59 286.066C1684.86 285.75 1685.31 285.705 1685.67 285.976C1687.98 287.874 1690.24 289.953 1692.31 292.122C1692.59 292.438 1692.59 292.89 1692.31 293.206C1692.09 293.296 1691.91 293.387 1691.73 293.387ZM1549.67 284.214C1549.4 284.214 1549.13 284.078 1548.99 283.807C1548.81 283.446 1548.94 282.994 1549.31 282.768C1551.88 281.322 1554.59 279.966 1557.35 278.701C1557.71 278.52 1558.17 278.701 1558.35 279.062C1558.53 279.424 1558.35 279.876 1557.98 280.056C1555.27 281.322 1552.61 282.677 1550.03 284.078C1549.89 284.169 1549.76 284.214 1549.67 284.214ZM1677.94 282C1677.81 282 1677.67 281.954 1677.53 281.864C1675.09 280.237 1672.52 278.746 1669.9 277.39C1669.53 277.21 1669.4 276.758 1669.58 276.351C1669.76 275.99 1670.21 275.854 1670.62 276.035C1673.29 277.436 1675.91 278.972 1678.39 280.599C1678.76 280.825 1678.85 281.277 1678.62 281.638C1678.44 281.864 1678.21 282 1677.94 282ZM1565.85 276.622C1565.53 276.622 1565.26 276.441 1565.13 276.125C1564.99 275.718 1565.17 275.312 1565.53 275.131C1568.29 274.046 1571.14 273.007 1573.98 272.103C1574.39 271.968 1574.8 272.194 1574.93 272.6C1575.07 273.007 1574.84 273.414 1574.44 273.549C1571.63 274.453 1568.79 275.492 1566.08 276.577C1566.03 276.577 1565.94 276.622 1565.85 276.622ZM1662.12 273.73C1662.03 273.73 1661.94 273.73 1661.85 273.685C1659.14 272.6 1656.34 271.606 1653.44 270.748C1653.04 270.612 1652.81 270.206 1652.95 269.799C1653.08 269.392 1653.49 269.166 1653.9 269.302C1656.79 270.16 1659.68 271.154 1662.39 272.284C1662.8 272.42 1662.98 272.872 1662.8 273.278C1662.71 273.549 1662.39 273.73 1662.12 273.73ZM1582.89 271.064C1582.57 271.064 1582.26 270.838 1582.17 270.522C1582.08 270.115 1582.3 269.708 1582.71 269.618C1585.6 268.85 1588.54 268.172 1591.48 267.585C1591.88 267.494 1592.29 267.765 1592.38 268.172C1592.47 268.579 1592.2 268.985 1591.79 269.076C1588.9 269.663 1585.96 270.341 1583.12 271.109C1583.02 271.064 1582.93 271.064 1582.89 271.064ZM1644.99 268.624C1644.95 268.624 1644.9 268.624 1644.86 268.624C1642.01 268.037 1639.07 267.539 1636.09 267.178C1635.68 267.133 1635.36 266.726 1635.45 266.319C1635.5 265.913 1635.91 265.596 1636.31 265.687C1639.34 266.093 1642.33 266.59 1645.22 267.178C1645.62 267.268 1645.9 267.675 1645.81 268.082C1645.62 268.353 1645.31 268.624 1644.99 268.624ZM1600.43 267.539C1600.06 267.539 1599.75 267.268 1599.66 266.907C1599.61 266.5 1599.88 266.093 1600.29 266.048C1603.27 265.642 1606.26 265.325 1609.24 265.054C1609.65 265.009 1610.01 265.325 1610.05 265.732C1610.1 266.139 1609.78 266.5 1609.38 266.545C1606.44 266.771 1603.45 267.088 1600.52 267.494C1600.52 267.539 1600.47 267.539 1600.43 267.539ZM1627.23 266.319C1624.25 266.139 1621.26 266.093 1618.28 266.139C1617.87 266.139 1617.51 265.822 1617.51 265.416C1617.51 265.009 1617.83 264.647 1618.23 264.647C1621.26 264.602 1624.29 264.647 1627.23 264.828C1627.64 264.873 1627.95 265.19 1627.95 265.642C1627.95 266.003 1627.64 266.319 1627.23 266.319Z" fill="#66192D"/>
<path d="M1695.93 549.195C1695.52 549.195 1695.16 548.879 1695.16 548.427C1695.16 548.02 1695.48 547.658 1695.93 547.658C1697.24 547.658 1698.73 547.523 1700.31 547.252C1700.72 547.161 1701.13 547.478 1701.17 547.884C1701.26 548.291 1700.95 548.698 1700.54 548.743C1698.91 549.06 1697.33 549.195 1695.93 549.195Z" fill="#66192D"/>
<path d="M1560.7 344.901H1560.65C1559.16 344.811 1557.62 344.721 1556.13 344.63C1555.72 344.585 1555.41 344.269 1555.41 343.817C1555.45 343.41 1555.82 343.094 1556.22 343.094C1557.71 343.184 1559.25 343.274 1560.74 343.365C1561.15 343.41 1561.46 343.771 1561.42 344.178C1561.42 344.63 1561.1 344.901 1560.7 344.901Z" fill="#786AB5"/>
<path d="M1703.48 776.309C1702.85 776.309 1702.21 776.309 1701.58 776.309C1701.17 776.309 1700.81 775.947 1700.86 775.541C1700.86 775.134 1701.22 774.818 1701.63 774.818C1704.65 774.863 1707.64 774.818 1710.62 774.592C1711.03 774.546 1711.39 774.863 1711.43 775.315C1711.48 775.721 1711.16 776.083 1710.71 776.128C1708.32 776.218 1705.92 776.309 1703.48 776.309ZM1692.54 775.767C1692.5 775.767 1692.5 775.767 1692.45 775.767C1689.47 775.495 1686.39 775.044 1683.41 774.546C1683 774.456 1682.73 774.095 1682.78 773.688C1682.87 773.281 1683.23 773.01 1683.64 773.055C1686.62 773.598 1689.6 774.004 1692.59 774.275C1692.99 774.321 1693.31 774.682 1693.26 775.089C1693.26 775.45 1692.95 775.767 1692.54 775.767ZM1719.71 775.089C1719.34 775.089 1719.03 774.818 1718.98 774.456C1718.94 774.049 1719.21 773.643 1719.61 773.598C1722.55 773.146 1725.54 772.558 1728.47 771.88C1728.88 771.79 1729.29 772.016 1729.38 772.423C1729.47 772.829 1729.24 773.236 1728.84 773.326C1725.9 774.049 1722.87 774.592 1719.89 775.044C1719.75 775.089 1719.71 775.089 1719.71 775.089ZM1674.69 772.739C1674.64 772.739 1674.55 772.739 1674.51 772.739C1671.52 772.061 1668.59 771.293 1665.69 770.434C1665.29 770.299 1665.06 769.892 1665.2 769.485C1665.33 769.079 1665.74 768.853 1666.14 768.988C1668.99 769.802 1671.93 770.57 1674.87 771.248C1675.27 771.338 1675.55 771.745 1675.46 772.151C1675.32 772.513 1675 772.739 1674.69 772.739ZM1737.33 770.886C1737.02 770.886 1736.7 770.706 1736.61 770.389C1736.47 769.983 1736.7 769.576 1737.11 769.44C1739.95 768.491 1742.76 767.452 1745.51 766.277C1745.92 766.096 1746.33 766.277 1746.51 766.684C1746.69 767.045 1746.51 767.497 1746.1 767.678C1743.3 768.853 1740.45 769.937 1737.56 770.886C1737.47 770.886 1737.38 770.886 1737.33 770.886ZM1657.24 767.678C1657.15 767.678 1657.06 767.678 1656.97 767.633C1654.12 766.639 1651.23 765.509 1648.47 764.379C1648.07 764.198 1647.88 763.792 1648.07 763.385C1648.25 762.978 1648.65 762.798 1649.06 762.978C1651.82 764.153 1654.66 765.238 1657.47 766.232C1657.87 766.367 1658.05 766.819 1657.92 767.181C1657.87 767.497 1657.56 767.678 1657.24 767.678ZM1754.01 763.792C1753.74 763.792 1753.47 763.656 1753.33 763.385C1753.15 763.024 1753.29 762.572 1753.65 762.346C1756.27 760.945 1758.89 759.454 1761.42 757.827C1761.79 757.601 1762.24 757.691 1762.46 758.053C1762.69 758.414 1762.6 758.866 1762.24 759.092C1759.66 760.719 1756.99 762.255 1754.33 763.656C1754.24 763.792 1754.1 763.792 1754.01 763.792ZM1640.52 760.674C1640.43 760.674 1640.29 760.629 1640.2 760.583C1637.49 759.228 1634.78 757.827 1632.16 756.336C1631.79 756.11 1631.66 755.658 1631.88 755.297C1632.11 754.935 1632.56 754.799 1632.92 755.025C1635.5 756.517 1638.21 757.917 1640.88 759.228C1641.24 759.409 1641.42 759.86 1641.24 760.222C1641.1 760.538 1640.83 760.674 1640.52 760.674ZM1769.29 754.076C1769.06 754.076 1768.84 753.986 1768.7 753.76C1768.43 753.444 1768.52 752.947 1768.84 752.721C1771.23 750.913 1773.58 749.015 1775.8 747.027C1776.11 746.756 1776.57 746.801 1776.88 747.072C1777.15 747.389 1777.11 747.84 1776.84 748.157C1774.58 750.19 1772.18 752.133 1769.79 753.941C1769.6 754.031 1769.42 754.076 1769.29 754.076ZM1624.79 751.727C1624.65 751.727 1624.52 751.681 1624.38 751.591C1621.85 749.919 1619.32 748.202 1616.92 746.394C1616.61 746.123 1616.52 745.672 1616.79 745.355C1617.01 745.039 1617.51 744.948 1617.83 745.22C1620.22 747.027 1622.71 748.744 1625.24 750.371C1625.6 750.597 1625.69 751.049 1625.47 751.41C1625.29 751.591 1625.01 751.727 1624.79 751.727ZM1782.85 742.056C1782.67 742.056 1782.49 741.966 1782.31 741.831C1781.99 741.559 1781.99 741.062 1782.31 740.746C1784.38 738.577 1786.42 736.318 1788.32 734.013C1788.59 733.697 1789.04 733.652 1789.4 733.923C1789.72 734.194 1789.76 734.646 1789.49 735.007C1787.55 737.357 1785.51 739.616 1783.39 741.831C1783.25 742.011 1783.03 742.056 1782.85 742.056ZM1610.23 740.882C1610.05 740.882 1609.87 740.836 1609.74 740.701C1607.43 738.758 1605.13 736.724 1602.96 734.6C1602.64 734.329 1602.64 733.832 1602.91 733.516C1603.18 733.2 1603.68 733.2 1604 733.471C1606.17 735.549 1608.43 737.583 1610.73 739.481C1611.05 739.752 1611.09 740.204 1610.82 740.565C1610.64 740.791 1610.46 740.882 1610.23 740.882ZM1597.08 728.41C1596.9 728.41 1596.67 728.319 1596.54 728.184C1594.46 725.97 1592.43 723.665 1590.53 721.361C1590.26 721.044 1590.3 720.547 1590.62 720.276C1590.93 720.005 1591.43 720.05 1591.7 720.366C1593.65 722.671 1595.64 724.975 1597.67 727.145C1597.94 727.461 1597.94 727.913 1597.62 728.229C1597.44 728.319 1597.26 728.41 1597.08 728.41ZM1794.37 728.093C1794.24 728.093 1794.06 728.048 1793.92 727.958C1793.56 727.732 1793.51 727.235 1793.74 726.919C1795.46 724.478 1797.13 721.903 1798.62 719.327C1798.85 718.966 1799.3 718.83 1799.66 719.056C1800.02 719.282 1800.16 719.734 1799.93 720.095C1798.4 722.716 1796.72 725.292 1794.96 727.777C1794.87 728.003 1794.64 728.093 1794.37 728.093ZM1585.47 714.447C1585.24 714.447 1585.01 714.356 1584.88 714.13C1583.07 711.69 1581.31 709.16 1579.68 706.629C1579.45 706.268 1579.54 705.816 1579.91 705.59C1580.27 705.364 1580.72 705.454 1580.95 705.816C1582.57 708.301 1584.34 710.832 1586.1 713.227C1586.32 713.543 1586.28 714.04 1585.96 714.266C1585.78 714.402 1585.65 714.447 1585.47 714.447ZM1803.59 712.504C1803.5 712.504 1803.37 712.458 1803.28 712.413C1802.92 712.233 1802.73 711.781 1802.92 711.419C1804.23 708.708 1805.45 705.951 1806.53 703.15C1806.67 702.743 1807.12 702.562 1807.53 702.698C1807.93 702.834 1808.11 703.285 1807.98 703.692C1806.89 706.494 1805.67 709.295 1804.32 712.052C1804.14 712.323 1803.91 712.504 1803.59 712.504ZM1575.52 699.264C1575.25 699.264 1575.02 699.128 1574.89 698.902C1573.35 696.236 1571.91 693.525 1570.55 690.859C1570.37 690.497 1570.5 690.045 1570.91 689.865C1571.27 689.684 1571.72 689.819 1571.91 690.226C1573.22 692.892 1574.66 695.558 1576.2 698.179C1576.43 698.541 1576.29 698.993 1575.93 699.219C1575.79 699.264 1575.66 699.264 1575.52 699.264ZM1810.15 695.603C1810.06 695.603 1810.01 695.603 1809.92 695.558C1809.51 695.423 1809.29 695.016 1809.42 694.609C1810.28 691.717 1810.96 688.78 1811.55 685.843C1811.64 685.436 1812 685.165 1812.45 685.255C1812.86 685.346 1813.13 685.707 1813.04 686.159C1812.45 689.096 1811.77 692.079 1810.92 695.061C1810.78 695.378 1810.46 695.603 1810.15 695.603ZM1813.54 677.799C1813.54 677.799 1813.49 677.799 1813.45 677.799C1813.04 677.754 1812.72 677.393 1812.77 676.986C1813 674.41 1813.13 671.835 1813.13 669.304C1813.13 668.852 1813.13 668.446 1813.13 667.994C1813.13 667.587 1813.45 667.226 1813.85 667.226C1814.26 667.226 1814.62 667.542 1814.62 667.949C1814.62 668.4 1814.62 668.852 1814.62 669.259C1814.62 671.835 1814.49 674.456 1814.26 677.077C1814.26 677.483 1813.9 677.799 1813.54 677.799ZM1813.22 659.679C1812.86 659.679 1812.54 659.408 1812.45 659.001C1812.05 656.019 1811.5 653.037 1810.78 650.19C1810.69 649.783 1810.92 649.376 1811.32 649.286C1811.73 649.196 1812.14 649.422 1812.23 649.828C1813 652.766 1813.54 655.793 1813.94 658.821C1813.99 659.227 1813.72 659.634 1813.31 659.679C1813.27 659.679 1813.27 659.679 1813.22 659.679ZM1808.7 642.146C1808.38 642.146 1808.11 641.966 1807.98 641.649C1806.89 638.893 1805.58 636.136 1804.14 633.561C1803.96 633.199 1804.05 632.747 1804.41 632.521C1804.77 632.341 1805.22 632.431 1805.45 632.793C1806.94 635.459 1808.25 638.215 1809.38 641.062C1809.51 641.469 1809.33 641.875 1808.97 642.056C1808.88 642.146 1808.79 642.146 1808.7 642.146ZM1750.76 634.058C1748.41 634.058 1746.24 633.696 1744.2 633.018C1743.8 632.883 1743.62 632.431 1743.75 632.069C1743.89 631.663 1744.34 631.482 1744.7 631.618C1747.23 632.521 1750.17 632.793 1753.33 632.431C1753.74 632.386 1754.1 632.702 1754.15 633.109C1754.19 633.516 1753.88 633.877 1753.47 633.922C1752.56 633.967 1751.66 634.058 1750.76 634.058ZM1762.19 631.618C1761.88 631.618 1761.6 631.437 1761.47 631.121C1761.33 630.714 1761.51 630.307 1761.88 630.126C1764.45 629.132 1767.12 627.777 1769.88 626.15C1770.24 625.924 1770.69 626.06 1770.92 626.421C1771.14 626.783 1771.01 627.234 1770.64 627.46C1767.84 629.132 1765.04 630.488 1762.42 631.527C1762.37 631.618 1762.28 631.618 1762.19 631.618ZM1737.24 627.777C1737.02 627.777 1736.79 627.686 1736.65 627.46C1734.8 625.065 1733.54 622.083 1733.04 618.829C1732.99 618.423 1733.26 618.016 1733.67 617.971C1734.08 617.926 1734.49 618.197 1734.53 618.604C1734.98 621.586 1736.16 624.342 1737.83 626.557C1738.1 626.873 1738.01 627.37 1737.69 627.596C1737.56 627.732 1737.38 627.777 1737.24 627.777ZM1799.89 626.331C1799.66 626.331 1799.44 626.24 1799.3 626.014C1797.54 623.619 1795.59 621.315 1793.51 619.146C1793.24 618.829 1793.24 618.378 1793.51 618.061C1793.83 617.79 1794.28 617.79 1794.6 618.061C1796.72 620.275 1798.71 622.625 1800.52 625.065C1800.79 625.382 1800.7 625.879 1800.38 626.105C1800.2 626.285 1800.07 626.331 1799.89 626.331ZM1777.83 622.535C1777.6 622.535 1777.38 622.445 1777.24 622.219C1776.97 621.902 1777.06 621.405 1777.38 621.179C1779.68 619.417 1781.85 617.383 1783.84 615.079C1784.11 614.763 1784.61 614.717 1784.93 614.989C1785.24 615.26 1785.29 615.757 1785.02 616.073C1782.98 618.468 1780.72 620.592 1778.33 622.399C1778.15 622.49 1778.01 622.535 1777.83 622.535ZM1787.37 613.271C1787.19 613.271 1787.05 613.226 1786.87 613.091C1786.6 612.865 1786.33 612.639 1786.06 612.413C1783.89 610.696 1781.76 609.114 1779.68 607.668C1779.32 607.442 1779.28 606.945 1779.5 606.629C1779.73 606.267 1780.23 606.222 1780.54 606.448C1782.67 607.894 1784.84 609.521 1787.01 611.283C1787.28 611.509 1787.55 611.735 1787.86 611.961C1788.18 612.232 1788.23 612.684 1787.96 613.045C1787.82 613.181 1787.59 613.271 1787.37 613.271ZM1734.3 610.515C1734.21 610.515 1734.17 610.515 1734.08 610.47C1733.67 610.334 1733.45 609.928 1733.58 609.521C1734.49 606.403 1736.07 603.601 1738.19 601.387C1738.46 601.071 1738.96 601.071 1739.28 601.342C1739.59 601.613 1739.59 602.11 1739.32 602.426C1737.38 604.46 1735.93 607.081 1735.07 609.927C1734.94 610.289 1734.67 610.515 1734.3 610.515ZM1789.58 608.888C1789.45 608.888 1789.31 608.843 1789.22 608.798C1788.86 608.572 1788.72 608.12 1788.95 607.759C1790.4 605.273 1791.66 602.562 1792.75 599.67C1792.88 599.263 1793.33 599.082 1793.74 599.218C1794.15 599.354 1794.33 599.805 1794.19 600.212C1793.06 603.149 1791.75 605.951 1790.26 608.527C1790.12 608.753 1789.85 608.888 1789.58 608.888ZM1772.45 603.059C1772.32 603.059 1772.23 603.014 1772.09 602.969C1769.29 601.432 1766.53 600.212 1763.95 599.263C1763.55 599.128 1763.37 598.676 1763.5 598.314C1763.64 597.908 1764.09 597.727 1764.45 597.862C1767.12 598.811 1769.97 600.077 1772.81 601.658C1773.18 601.839 1773.31 602.336 1773.13 602.697C1772.95 602.878 1772.68 603.059 1772.45 603.059ZM1746.37 598.043C1746.06 598.043 1745.74 597.817 1745.65 597.501C1745.51 597.094 1745.74 596.687 1746.15 596.552C1748.95 595.693 1752.07 595.422 1755.41 595.739C1755.82 595.784 1756.14 596.145 1756.09 596.552C1756.04 596.959 1755.68 597.275 1755.28 597.23C1752.11 596.913 1749.22 597.185 1746.6 597.953C1746.55 597.998 1746.46 598.043 1746.37 598.043ZM1796.18 592.033C1796.14 592.033 1796.05 592.033 1796 592.033C1795.59 591.943 1795.37 591.536 1795.46 591.129C1796.14 588.328 1796.72 585.345 1797.18 582.318C1797.22 581.911 1797.63 581.64 1798.03 581.685C1798.44 581.73 1798.71 582.137 1798.67 582.544C1798.22 585.662 1797.63 588.644 1796.95 591.536C1796.81 591.807 1796.5 592.033 1796.18 592.033ZM1798.76 574.094C1798.31 574.048 1797.99 573.732 1797.99 573.28C1798.12 571.156 1798.17 568.942 1798.17 566.728C1798.17 565.915 1798.17 565.056 1798.12 564.243C1798.12 563.836 1798.44 563.475 1798.85 563.475C1799.25 563.475 1799.62 563.791 1799.62 564.198C1799.62 565.056 1799.66 565.869 1799.66 566.728C1799.66 568.942 1799.62 571.202 1799.48 573.325C1799.48 573.777 1799.16 574.094 1798.76 574.094ZM1798.44 555.973C1798.03 555.973 1797.72 555.657 1797.67 555.296C1797.45 552.358 1797.09 549.331 1796.63 546.303C1796.59 545.896 1796.86 545.49 1797.27 545.445C1797.67 545.399 1798.08 545.671 1798.12 546.077C1798.58 549.105 1798.89 552.178 1799.16 555.115C1799.21 555.521 1798.89 555.883 1798.49 555.928C1798.49 555.973 1798.44 555.973 1798.44 555.973ZM1795.86 537.989C1795.5 537.989 1795.19 537.717 1795.14 537.401C1794.55 534.509 1793.92 531.527 1793.15 528.59C1793.06 528.183 1793.29 527.776 1793.7 527.686C1794.1 527.595 1794.51 527.821 1794.6 528.228C1795.32 531.21 1796 534.193 1796.59 537.13C1796.68 537.537 1796.41 537.943 1796 538.034C1795.96 537.989 1795.91 537.989 1795.86 537.989ZM1791.48 520.411C1791.16 520.411 1790.85 520.185 1790.76 519.868C1789.9 517.022 1788.99 514.13 1788 511.283C1787.86 510.876 1788.09 510.469 1788.45 510.334C1788.86 510.198 1789.27 510.424 1789.4 510.786C1790.4 513.678 1791.34 516.57 1792.2 519.462C1792.34 519.868 1792.11 520.275 1791.71 520.411C1791.66 520.411 1791.57 520.411 1791.48 520.411ZM1785.56 503.239C1785.24 503.239 1784.97 503.059 1784.84 502.742C1783.75 499.986 1782.58 497.139 1781.36 494.382C1781.18 494.021 1781.36 493.569 1781.76 493.388C1782.12 493.208 1782.58 493.388 1782.76 493.795C1783.98 496.597 1785.15 499.398 1786.24 502.2C1786.37 502.607 1786.19 503.013 1785.83 503.194C1785.74 503.239 1785.65 503.239 1785.56 503.239ZM1778.24 486.655C1777.97 486.655 1777.69 486.52 1777.56 486.249C1776.25 483.537 1774.85 480.826 1773.45 478.205C1773.27 477.844 1773.4 477.392 1773.76 477.166C1774.12 476.985 1774.58 477.121 1774.8 477.482C1776.25 480.148 1777.6 482.86 1778.96 485.571C1779.14 485.932 1779.01 486.384 1778.6 486.565C1778.46 486.61 1778.37 486.655 1778.24 486.655ZM1769.69 470.659C1769.42 470.659 1769.2 470.523 1769.06 470.297C1767.57 467.722 1765.99 465.101 1764.36 462.57C1764.14 462.209 1764.23 461.757 1764.59 461.531C1764.95 461.305 1765.4 461.395 1765.63 461.757C1767.25 464.333 1768.84 466.953 1770.37 469.529C1770.6 469.891 1770.46 470.343 1770.1 470.569C1769.97 470.614 1769.83 470.659 1769.69 470.659ZM1759.98 455.295C1759.75 455.295 1759.48 455.16 1759.34 454.979C1757.63 452.493 1755.86 450.008 1754.1 447.613C1753.88 447.297 1753.92 446.8 1754.24 446.574C1754.55 446.303 1755.05 446.393 1755.28 446.709C1757.08 449.15 1758.85 451.635 1760.56 454.12C1760.79 454.482 1760.7 454.934 1760.38 455.159C1760.25 455.295 1760.11 455.295 1759.98 455.295ZM1749.17 440.745C1748.95 440.745 1748.72 440.654 1748.59 440.473C1746.73 438.124 1744.79 435.774 1742.8 433.515C1742.53 433.198 1742.58 432.701 1742.89 432.43C1743.21 432.159 1743.71 432.204 1743.98 432.52C1745.97 434.825 1747.91 437.175 1749.76 439.525C1750.03 439.841 1749.99 440.338 1749.63 440.564C1749.49 440.699 1749.31 440.745 1749.17 440.745ZM1737.33 426.962C1737.11 426.962 1736.93 426.872 1736.79 426.736C1734.76 424.522 1732.63 422.308 1730.55 420.184C1730.28 419.868 1730.28 419.416 1730.55 419.1C1730.87 418.829 1731.32 418.829 1731.64 419.1C1733.76 421.224 1735.89 423.438 1737.92 425.652C1738.19 425.968 1738.19 426.42 1737.88 426.736C1737.69 426.917 1737.51 426.962 1737.33 426.962ZM1724.54 414.129C1724.36 414.129 1724.18 414.084 1724.04 413.903C1721.87 411.87 1719.61 409.791 1717.35 407.848C1717.04 407.577 1716.99 407.08 1717.26 406.763C1717.54 406.447 1718.03 406.402 1718.35 406.673C1720.61 408.661 1722.91 410.695 1725.08 412.773C1725.4 413.045 1725.4 413.542 1725.13 413.858C1724.95 414.039 1724.77 414.129 1724.54 414.129ZM1710.89 402.199C1710.71 402.199 1710.58 402.154 1710.39 402.019C1708.04 400.121 1705.65 398.268 1703.25 396.461C1702.94 396.189 1702.85 395.738 1703.12 395.421C1703.39 395.105 1703.84 395.015 1704.16 395.286C1706.55 397.093 1708.99 398.991 1711.34 400.889C1711.66 401.16 1711.71 401.612 1711.43 401.928C1711.3 402.109 1711.07 402.199 1710.89 402.199ZM1696.38 391.309C1696.25 391.309 1696.07 391.264 1695.93 391.174C1693.49 389.456 1690.96 387.785 1688.43 386.158C1688.07 385.932 1687.98 385.48 1688.2 385.118C1688.43 384.757 1688.88 384.667 1689.24 384.893C1691.77 386.519 1694.3 388.236 1696.79 389.954C1697.15 390.18 1697.2 390.677 1696.97 390.993C1696.83 391.174 1696.61 391.309 1696.38 391.309ZM1681.11 381.458C1680.97 381.458 1680.83 381.413 1680.7 381.368C1678.12 379.832 1675.46 378.34 1672.83 376.894C1672.47 376.714 1672.34 376.217 1672.52 375.855C1672.7 375.494 1673.2 375.358 1673.56 375.539C1676.22 376.985 1678.85 378.521 1681.47 380.057C1681.83 380.283 1681.96 380.735 1681.74 381.097C1681.65 381.323 1681.38 381.458 1681.11 381.458ZM1665.2 372.782C1665.06 372.782 1664.97 372.737 1664.88 372.692C1662.21 371.336 1659.46 370.026 1656.74 368.806C1656.38 368.625 1656.2 368.173 1656.38 367.812C1656.56 367.45 1657.01 367.269 1657.38 367.45C1660.13 368.715 1662.89 370.026 1665.6 371.381C1665.96 371.562 1666.14 372.014 1665.92 372.376C1665.74 372.601 1665.47 372.782 1665.2 372.782ZM1648.7 365.236C1648.61 365.236 1648.52 365.236 1648.43 365.191C1645.67 364.061 1642.82 362.931 1640.02 361.847C1639.61 361.711 1639.43 361.259 1639.57 360.853C1639.7 360.446 1640.16 360.265 1640.56 360.401C1643.41 361.44 1646.26 362.57 1649.01 363.745C1649.42 363.925 1649.6 364.332 1649.42 364.739C1649.29 365.055 1649.01 365.236 1648.7 365.236ZM1631.75 358.864C1631.66 358.864 1631.57 358.864 1631.52 358.819C1628.68 357.87 1625.78 356.967 1622.89 356.063C1622.48 355.927 1622.26 355.521 1622.39 355.114C1622.53 354.707 1622.93 354.481 1623.34 354.617C1626.23 355.475 1629.17 356.424 1632.02 357.373C1632.43 357.509 1632.61 357.915 1632.52 358.322C1632.34 358.638 1632.07 358.864 1631.75 358.864ZM1614.35 353.668C1614.3 353.668 1614.21 353.668 1614.17 353.623C1611.27 352.854 1608.34 352.131 1605.4 351.454C1604.99 351.363 1604.72 350.957 1604.81 350.55C1604.9 350.143 1605.31 349.872 1605.71 349.962C1608.65 350.64 1611.64 351.363 1614.53 352.131C1614.93 352.222 1615.16 352.629 1615.07 353.035C1614.98 353.442 1614.71 353.668 1614.35 353.668ZM1596.67 349.601C1596.63 349.601 1596.58 349.601 1596.54 349.601C1593.6 349.013 1590.62 348.516 1587.63 348.019C1587.23 347.974 1586.96 347.567 1587 347.161C1587.05 346.754 1587.45 346.483 1587.86 346.528C1590.84 347.025 1593.87 347.567 1596.81 348.11C1597.22 348.2 1597.49 348.607 1597.4 349.013C1597.35 349.375 1597.04 349.601 1596.67 349.601ZM1578.78 346.709C1578.73 346.709 1578.73 346.709 1578.69 346.709C1575.7 346.302 1572.72 345.986 1569.69 345.67C1569.28 345.624 1568.97 345.263 1569.01 344.856C1569.06 344.45 1569.42 344.133 1569.83 344.178C1572.85 344.495 1575.88 344.811 1578.87 345.218C1579.27 345.263 1579.59 345.67 1579.5 346.076C1579.45 346.438 1579.14 346.709 1578.78 346.709Z" fill="#786AB5"/>
<path d="M1567.39 682.815C1567.07 682.815 1566.8 682.634 1566.71 682.363C1565.62 679.652 1565.13 678.161 1565.08 678.07C1564.95 677.663 1565.17 677.257 1565.58 677.121C1565.98 676.986 1566.39 677.212 1566.53 677.618C1566.53 677.618 1567.02 679.155 1568.11 681.821C1568.24 682.227 1568.06 682.634 1567.7 682.815C1567.57 682.815 1567.48 682.815 1567.39 682.815Z" fill="#786AB5"/>
<path d="M1395.13 503.465C1393.64 503.465 1392.11 503.42 1390.61 503.284C1390.3 503.284 1390.07 503.013 1390.07 502.697C1390.07 502.38 1390.39 502.154 1390.66 502.154C1393.6 502.38 1396.63 502.38 1399.61 502.154C1399.93 502.154 1400.2 502.38 1400.2 502.697C1400.2 503.013 1399.97 503.284 1399.65 503.284C1398.21 503.42 1396.67 503.465 1395.13 503.465ZM1408.69 502.019C1408.42 502.019 1408.2 501.838 1408.15 501.567C1408.11 501.251 1408.29 500.98 1408.6 500.889C1409.28 500.754 1410 500.573 1410.68 500.392C1411 500.302 1411.32 500.482 1411.36 500.799C1411.45 501.115 1411.27 501.431 1410.95 501.477C1410.23 501.657 1409.51 501.793 1408.83 501.974C1408.74 502.019 1408.74 502.019 1408.69 502.019ZM1381.71 502.019C1381.66 502.019 1381.62 502.019 1381.57 502.019C1378.59 501.386 1375.65 500.483 1372.81 499.398C1372.53 499.308 1372.35 498.946 1372.49 498.675C1372.58 498.404 1372.94 498.223 1373.21 498.359C1376.02 499.398 1378.91 500.257 1381.8 500.934C1382.12 500.98 1382.3 501.296 1382.25 501.612C1382.21 501.838 1381.98 502.019 1381.71 502.019ZM1364.85 495.602C1364.76 495.602 1364.67 495.557 1364.58 495.512C1361.91 494.021 1359.38 492.349 1356.94 490.496C1356.72 490.315 1356.62 489.954 1356.85 489.683C1357.03 489.457 1357.39 489.366 1357.66 489.592C1360.01 491.4 1362.55 493.072 1365.17 494.518C1365.44 494.653 1365.53 495.015 1365.39 495.286C1365.21 495.512 1365.03 495.602 1364.85 495.602ZM1350.52 484.622C1350.39 484.622 1350.21 484.576 1350.12 484.441C1347.99 482.272 1346 479.922 1344.2 477.482C1344.01 477.211 1344.06 476.895 1344.33 476.669C1344.6 476.488 1344.92 476.533 1345.14 476.804C1346.91 479.199 1348.85 481.504 1350.93 483.627C1351.16 483.853 1351.16 484.215 1350.93 484.441C1350.79 484.576 1350.66 484.622 1350.52 484.622ZM1339.81 470.116C1339.63 470.116 1339.4 470.026 1339.31 469.8C1337.87 467.134 1336.6 464.378 1335.52 461.531C1335.43 461.26 1335.56 460.898 1335.83 460.808C1336.1 460.717 1336.47 460.853 1336.56 461.124C1337.64 463.926 1338.91 466.682 1340.31 469.258C1340.44 469.529 1340.35 469.89 1340.08 470.026C1339.99 470.071 1339.9 470.116 1339.81 470.116ZM1333.35 453.261C1333.08 453.261 1332.85 453.081 1332.81 452.809C1332.08 449.917 1331.54 446.89 1331.13 443.862C1331.09 443.546 1331.31 443.275 1331.63 443.23C1331.95 443.184 1332.22 443.41 1332.26 443.727C1332.62 446.709 1333.17 449.691 1333.89 452.538C1333.98 452.855 1333.8 453.171 1333.48 453.216C1333.39 453.216 1333.35 453.261 1333.35 453.261ZM1331.04 435.322C1330.73 435.322 1330.5 435.096 1330.45 434.78C1330.45 434.328 1330.45 433.921 1330.45 433.469C1330.45 430.893 1330.59 428.273 1330.77 425.652C1330.82 425.335 1331.09 425.109 1331.4 425.155C1331.72 425.2 1331.95 425.471 1331.9 425.787C1331.68 428.363 1331.58 430.939 1331.58 433.469C1331.58 433.921 1331.58 434.328 1331.58 434.78C1331.63 435.051 1331.4 435.322 1331.04 435.322C1331.09 435.322 1331.09 435.322 1331.04 435.322ZM1332.58 417.292C1332.53 417.292 1332.53 417.292 1332.49 417.292C1332.17 417.247 1331.99 416.93 1332.04 416.614C1332.26 415.258 1332.58 413.858 1332.85 412.457C1333.21 410.83 1333.48 409.248 1333.62 407.712C1333.66 407.396 1333.94 407.17 1334.25 407.215C1334.57 407.26 1334.79 407.531 1334.75 407.848C1334.61 409.384 1334.34 411.011 1333.98 412.728C1333.66 414.084 1333.39 415.484 1333.17 416.84C1333.08 417.111 1332.85 417.292 1332.58 417.292ZM1333.44 399.443C1333.21 399.443 1332.99 399.262 1332.9 399.036C1332.08 396.234 1330.73 393.749 1328.69 391.49C1328.47 391.264 1328.51 390.902 1328.74 390.676C1328.96 390.45 1329.32 390.496 1329.55 390.721C1331.68 393.116 1333.17 395.737 1334.03 398.72C1334.12 399.036 1333.94 399.352 1333.62 399.443C1333.53 399.443 1333.48 399.443 1333.44 399.443ZM1322.05 386.112C1321.96 386.112 1321.87 386.067 1321.78 386.022C1319.47 384.666 1316.85 383.401 1313.69 382.181C1313.42 382.045 1313.23 381.729 1313.37 381.458C1313.51 381.187 1313.82 381.006 1314.09 381.142C1317.3 382.407 1320.01 383.672 1322.36 385.073C1322.64 385.254 1322.73 385.57 1322.55 385.841C1322.45 386.022 1322.27 386.112 1322.05 386.112ZM1305.32 379.289C1305.28 379.289 1305.23 379.289 1305.14 379.244C1302.16 378.34 1299.04 377.436 1296.42 376.713C1296.1 376.623 1295.92 376.307 1296.01 376.035C1296.1 375.719 1296.42 375.538 1296.69 375.629C1299.31 376.352 1302.43 377.21 1305.41 378.159C1305.73 378.25 1305.87 378.566 1305.78 378.882C1305.78 379.108 1305.55 379.289 1305.32 379.289ZM1287.83 374.318C1287.79 374.318 1287.74 374.318 1287.7 374.318C1284.26 373.369 1281.5 372.556 1278.97 371.743C1278.66 371.652 1278.52 371.336 1278.61 371.02C1278.7 370.703 1279.02 370.568 1279.34 370.658C1281.87 371.426 1284.62 372.285 1288.01 373.234C1288.33 373.324 1288.51 373.641 1288.42 373.912C1288.33 374.138 1288.1 374.318 1287.83 374.318ZM1270.57 368.851C1270.52 368.851 1270.43 368.851 1270.39 368.805C1267.36 367.676 1264.6 366.501 1261.98 365.281C1261.71 365.145 1261.57 364.829 1261.71 364.513C1261.84 364.241 1262.16 364.106 1262.48 364.241C1265.05 365.462 1267.76 366.591 1270.79 367.721C1271.06 367.811 1271.24 368.173 1271.11 368.444C1271.02 368.67 1270.79 368.851 1270.57 368.851ZM1254.25 361.033C1254.16 361.033 1254.02 360.988 1253.93 360.943C1251.27 359.271 1248.78 357.463 1246.57 355.565C1246.34 355.339 1246.3 355.023 1246.52 354.752C1246.75 354.526 1247.06 354.481 1247.33 354.707C1249.5 356.56 1251.94 358.322 1254.57 359.994C1254.84 360.175 1254.93 360.491 1254.75 360.762C1254.61 360.943 1254.43 361.033 1254.25 361.033ZM1240.65 349.239C1240.46 349.239 1240.33 349.149 1240.19 349.013C1238.29 346.663 1236.58 344.088 1235.18 341.422C1235.04 341.151 1235.13 340.789 1235.4 340.653C1235.67 340.518 1236.03 340.608 1236.17 340.879C1237.57 343.5 1239.2 345.986 1241.05 348.29C1241.23 348.516 1241.23 348.878 1240.96 349.104C1240.87 349.194 1240.78 349.239 1240.65 349.239ZM1474.19 333.785C1473.96 333.785 1473.73 333.604 1473.64 333.378C1472.79 330.486 1471.88 327.594 1470.93 324.747C1470.84 324.431 1470.98 324.115 1471.29 324.024C1471.61 323.934 1471.93 324.07 1472.02 324.386C1472.97 327.233 1473.92 330.125 1474.73 333.062C1474.82 333.378 1474.64 333.695 1474.37 333.785C1474.28 333.785 1474.23 333.785 1474.19 333.785ZM1232.19 333.423C1231.97 333.423 1231.74 333.288 1231.65 333.017C1230.75 330.215 1230.07 327.233 1229.62 324.16C1229.57 323.844 1229.8 323.573 1230.07 323.527C1230.39 323.482 1230.66 323.708 1230.7 323.979C1231.15 327.007 1231.83 329.944 1232.69 332.655C1232.78 332.972 1232.6 333.288 1232.33 333.378C1232.33 333.423 1232.28 333.423 1232.19 333.423ZM1468.36 316.614C1468.13 316.614 1467.9 316.478 1467.81 316.252C1466.73 313.45 1465.55 310.649 1464.38 307.892C1464.24 307.621 1464.38 307.26 1464.65 307.124C1464.92 306.989 1465.28 307.124 1465.42 307.395C1466.64 310.152 1467.81 312.953 1468.9 315.8C1469.03 316.071 1468.85 316.433 1468.58 316.523C1468.49 316.614 1468.45 316.614 1468.36 316.614ZM1229.39 315.71C1229.07 315.71 1228.85 315.484 1228.8 315.168C1228.76 314.309 1228.76 313.45 1228.76 312.592C1228.76 310.468 1228.85 308.299 1228.98 306.085C1228.98 305.769 1229.26 305.543 1229.57 305.543C1229.89 305.543 1230.11 305.814 1230.11 306.13C1229.98 308.344 1229.89 310.513 1229.89 312.592C1229.89 313.45 1229.89 314.309 1229.93 315.122C1229.98 315.439 1229.71 315.665 1229.39 315.71ZM1321.01 310.739C1319.34 310.739 1317.66 310.649 1315.99 310.423C1315.67 310.378 1315.45 310.107 1315.49 309.79C1315.54 309.474 1315.81 309.248 1316.13 309.293C1319.06 309.655 1322.09 309.7 1325.03 309.384C1325.35 309.338 1325.62 309.564 1325.66 309.881C1325.71 310.197 1325.48 310.468 1325.17 310.513C1323.77 310.694 1322.36 310.739 1321.01 310.739ZM1333.94 308.615C1333.71 308.615 1333.48 308.48 1333.39 308.254C1333.3 307.938 1333.44 307.621 1333.75 307.531C1336.56 306.582 1339.27 305.271 1341.8 303.69C1342.07 303.509 1342.43 303.6 1342.57 303.871C1342.75 304.142 1342.66 304.503 1342.39 304.639C1339.77 306.266 1337.01 307.576 1334.12 308.57C1334.03 308.57 1333.98 308.615 1333.94 308.615ZM1307.27 308.344C1307.22 308.344 1307.13 308.344 1307.09 308.299C1304.19 307.26 1301.39 305.904 1298.86 304.277C1298.59 304.097 1298.5 303.78 1298.68 303.509C1298.86 303.238 1299.22 303.148 1299.45 303.328C1301.93 304.91 1304.6 306.22 1307.45 307.26C1307.77 307.35 1307.9 307.712 1307.81 307.983C1307.72 308.209 1307.49 308.344 1307.27 308.344ZM1461.03 300.075C1460.81 300.075 1460.63 299.939 1460.54 299.759C1459.18 297.047 1457.78 294.381 1456.29 291.806C1456.15 291.534 1456.24 291.173 1456.51 291.037C1456.78 290.902 1457.15 290.992 1457.28 291.263C1458.77 293.884 1460.17 296.55 1461.53 299.307C1461.67 299.578 1461.58 299.939 1461.26 300.075C1461.21 300.075 1461.12 300.075 1461.03 300.075ZM1349.08 299.036C1348.94 299.036 1348.81 298.99 1348.72 298.9C1348.49 298.674 1348.44 298.313 1348.67 298.087C1350.7 295.827 1352.24 293.297 1353.23 290.585C1353.33 290.269 1353.64 290.134 1353.96 290.224C1354.27 290.314 1354.41 290.676 1354.32 290.947C1353.28 293.794 1351.7 296.46 1349.53 298.81C1349.39 298.945 1349.26 299.036 1349.08 299.036ZM1292.17 298.629C1292.04 298.629 1291.86 298.584 1291.76 298.448C1289.64 296.189 1287.83 293.658 1286.39 290.992C1286.25 290.721 1286.34 290.36 1286.61 290.224C1286.88 290.088 1287.25 290.179 1287.38 290.45C1288.74 293.026 1290.5 295.466 1292.58 297.635C1292.8 297.861 1292.8 298.222 1292.53 298.448C1292.44 298.584 1292.31 298.629 1292.17 298.629ZM1230.52 297.635C1230.48 297.635 1230.48 297.635 1230.43 297.635C1230.11 297.59 1229.89 297.318 1229.93 297.002C1230.34 294.11 1230.88 291.128 1231.52 288.055C1231.56 287.739 1231.88 287.558 1232.19 287.603C1232.51 287.648 1232.69 287.965 1232.65 288.281C1232.01 291.308 1231.47 294.291 1231.06 297.183C1231.06 297.454 1230.84 297.635 1230.52 297.635ZM1452.17 284.304C1451.99 284.304 1451.81 284.214 1451.68 284.033C1450.05 281.503 1448.38 278.972 1446.62 276.532C1446.43 276.261 1446.48 275.945 1446.75 275.764C1447.02 275.583 1447.34 275.628 1447.52 275.899C1449.28 278.34 1450.95 280.87 1452.58 283.446C1452.76 283.717 1452.67 284.078 1452.4 284.214C1452.36 284.259 1452.27 284.304 1452.17 284.304ZM1283.86 282.813C1283.58 282.813 1283.36 282.632 1283.31 282.361C1282.86 280.192 1282.63 277.933 1282.63 275.673C1282.63 274.86 1282.68 274.002 1282.73 273.188C1282.73 272.872 1283 272.646 1283.31 272.646C1283.63 272.646 1283.86 272.917 1283.86 273.233C1283.81 274.047 1283.76 274.86 1283.76 275.628C1283.76 277.797 1283.99 279.966 1284.4 282.09C1284.44 282.406 1284.26 282.678 1283.95 282.768C1283.9 282.813 1283.86 282.813 1283.86 282.813ZM1355.04 282.406C1354.73 282.406 1354.5 282.181 1354.46 281.864C1354.32 279.063 1353.78 276.171 1352.74 273.188C1352.65 272.872 1352.78 272.556 1353.1 272.465C1353.42 272.375 1353.73 272.51 1353.82 272.827C1354.86 275.899 1355.45 278.927 1355.59 281.819C1355.63 282.135 1355.4 282.406 1355.04 282.406ZM1234.23 279.921C1234.18 279.921 1234.14 279.921 1234.09 279.921C1233.78 279.831 1233.59 279.514 1233.68 279.243C1234.5 276.261 1235.45 273.324 1236.4 270.567C1236.49 270.251 1236.85 270.115 1237.12 270.206C1237.44 270.296 1237.57 270.658 1237.48 270.929C1236.49 273.64 1235.58 276.532 1234.77 279.514C1234.72 279.74 1234.5 279.921 1234.23 279.921ZM1441.64 269.573C1441.46 269.573 1441.33 269.483 1441.19 269.347C1439.29 266.997 1437.3 264.693 1435.32 262.479C1435.09 262.253 1435.13 261.891 1435.36 261.665C1435.59 261.439 1435.95 261.485 1436.17 261.71C1438.21 263.925 1440.2 266.229 1442.1 268.624C1442.28 268.85 1442.23 269.212 1442 269.438C1441.87 269.528 1441.73 269.573 1441.64 269.573ZM1349.48 265.371C1349.3 265.371 1349.12 265.28 1348.99 265.1C1347.54 262.614 1345.82 260.174 1343.83 257.734C1343.65 257.508 1343.65 257.147 1343.92 256.921C1344.15 256.74 1344.51 256.74 1344.74 257.011C1346.73 259.451 1348.49 261.982 1349.98 264.512C1350.12 264.783 1350.03 265.145 1349.8 265.28C1349.71 265.371 1349.62 265.371 1349.48 265.371ZM1284.99 264.964C1284.94 264.964 1284.85 264.964 1284.8 264.919C1284.49 264.828 1284.35 264.512 1284.44 264.196C1285.35 261.394 1286.52 258.593 1288.06 255.791C1288.19 255.52 1288.56 255.429 1288.83 255.565C1289.1 255.701 1289.19 256.062 1289.05 256.333C1287.56 259.044 1286.39 261.846 1285.53 264.557C1285.44 264.783 1285.26 264.964 1284.99 264.964ZM1240.37 262.931C1240.28 262.931 1240.19 262.931 1240.15 262.885C1239.88 262.75 1239.74 262.433 1239.88 262.117C1241.19 259.27 1242.63 256.559 1244.17 254.074C1244.35 253.803 1244.67 253.712 1244.94 253.893C1245.21 254.074 1245.3 254.39 1245.12 254.661C1243.63 257.101 1242.18 259.767 1240.87 262.569C1240.83 262.795 1240.6 262.931 1240.37 262.931ZM1429.44 256.198C1429.3 256.198 1429.17 256.152 1429.03 256.017C1426.86 253.938 1424.6 251.86 1422.34 249.962C1422.12 249.781 1422.07 249.419 1422.3 249.148C1422.48 248.922 1422.84 248.877 1423.11 249.103C1425.37 251.046 1427.68 253.125 1429.85 255.203C1430.07 255.429 1430.07 255.791 1429.85 256.017C1429.76 256.152 1429.58 256.198 1429.44 256.198ZM1338.18 251.317C1338.05 251.317 1337.91 251.272 1337.78 251.182C1335.65 249.148 1333.35 247.16 1330.95 245.353C1330.73 245.172 1330.64 244.81 1330.86 244.539C1331.04 244.268 1331.4 244.223 1331.68 244.449C1334.12 246.301 1336.47 248.29 1338.59 250.368C1338.82 250.594 1338.82 250.956 1338.59 251.182C1338.46 251.227 1338.32 251.317 1338.18 251.317ZM1293.48 249.013C1293.35 249.013 1293.26 248.968 1293.17 248.922C1292.89 248.742 1292.85 248.38 1293.03 248.109C1294.3 246.437 1295.65 244.72 1297.14 243.048C1297.73 242.415 1298.32 241.737 1298.91 241.15C1299.13 240.924 1299.49 240.924 1299.72 241.15C1299.95 241.376 1299.95 241.738 1299.72 241.963C1299.13 242.596 1298.54 243.229 1297.96 243.861C1296.51 245.488 1295.15 247.16 1293.89 248.832C1293.8 248.968 1293.62 249.013 1293.48 249.013ZM1249.91 247.567C1249.78 247.567 1249.64 247.522 1249.55 247.431C1249.32 247.25 1249.28 246.889 1249.46 246.618C1251.45 244.223 1253.57 242.009 1255.83 240.066C1256.06 239.84 1256.42 239.885 1256.65 240.111C1256.87 240.337 1256.83 240.698 1256.6 240.924C1254.43 242.822 1252.31 244.991 1250.36 247.341C1250.23 247.522 1250.09 247.567 1249.91 247.567ZM1415.65 244.494C1415.52 244.494 1415.43 244.449 1415.34 244.404C1412.9 242.596 1410.41 240.879 1407.93 239.297C1407.65 239.117 1407.56 238.8 1407.74 238.529C1407.93 238.258 1408.24 238.168 1408.51 238.348C1411.04 239.975 1413.58 241.692 1416.02 243.5C1416.29 243.681 1416.33 244.042 1416.15 244.313C1416.02 244.404 1415.84 244.494 1415.65 244.494ZM1323.81 240.337C1323.72 240.337 1323.63 240.291 1323.54 240.246C1320.96 238.665 1318.3 237.264 1315.58 235.999C1315.31 235.863 1315.18 235.547 1315.31 235.23C1315.45 234.959 1315.77 234.824 1316.08 234.959C1318.79 236.225 1321.51 237.671 1324.13 239.252C1324.4 239.433 1324.49 239.749 1324.31 240.02C1324.17 240.201 1323.99 240.337 1323.81 240.337ZM1306.05 236.089C1305.87 236.089 1305.73 235.999 1305.6 235.863C1305.41 235.637 1305.46 235.276 1305.69 235.05C1308.08 233.197 1310.61 231.525 1313.28 229.989C1313.55 229.853 1313.91 229.944 1314.05 230.215C1314.18 230.486 1314.09 230.847 1313.82 230.983C1311.2 232.474 1308.71 234.146 1306.36 235.953C1306.32 236.044 1306.18 236.089 1306.05 236.089ZM1263.56 235.818C1263.38 235.818 1263.15 235.728 1263.06 235.547C1262.93 235.276 1263.02 234.914 1263.29 234.779C1265.91 233.242 1268.71 231.977 1271.61 230.983C1271.92 230.892 1272.24 231.028 1272.33 231.344C1272.42 231.661 1272.28 231.977 1271.97 232.067C1269.17 233.016 1266.41 234.282 1263.83 235.773C1263.74 235.773 1263.65 235.818 1263.56 235.818ZM1400.38 234.779C1400.29 234.779 1400.2 234.779 1400.11 234.733C1397.44 233.287 1394.73 231.977 1392.02 230.757C1391.74 230.621 1391.61 230.305 1391.74 229.989C1391.88 229.718 1392.2 229.582 1392.51 229.718C1395.27 230.938 1398.03 232.293 1400.69 233.739C1400.96 233.875 1401.06 234.236 1400.92 234.507C1400.78 234.643 1400.6 234.779 1400.38 234.779ZM1307.36 232.745C1307.31 232.745 1307.22 232.745 1307.18 232.7C1304.28 231.751 1301.35 230.983 1298.45 230.486C1298.14 230.441 1297.96 230.124 1298 229.808C1298.05 229.492 1298.36 229.311 1298.68 229.356C1301.62 229.898 1304.6 230.667 1307.54 231.615C1307.86 231.706 1307.99 232.022 1307.9 232.338C1307.86 232.564 1307.63 232.745 1307.36 232.745ZM1280.56 229.943C1280.28 229.943 1280.01 229.718 1280.01 229.446C1279.97 229.13 1280.19 228.859 1280.51 228.814C1283.45 228.407 1286.52 228.226 1289.64 228.317C1289.96 228.317 1290.18 228.588 1290.18 228.904C1290.18 229.22 1289.91 229.446 1289.6 229.446C1286.52 229.356 1283.54 229.492 1280.65 229.898C1280.65 229.944 1280.6 229.943 1280.56 229.943ZM1383.83 227.458C1383.79 227.458 1383.7 227.458 1383.65 227.413C1380.81 226.419 1377.91 225.56 1375.02 224.792C1374.7 224.702 1374.52 224.385 1374.61 224.114C1374.7 223.798 1375.02 223.617 1375.29 223.708C1378.18 224.476 1381.12 225.334 1384.02 226.328C1384.33 226.419 1384.47 226.735 1384.38 227.051C1384.29 227.323 1384.06 227.458 1383.83 227.458ZM1321.73 227.142C1321.51 227.142 1321.28 227.006 1321.19 226.78C1321.05 226.509 1321.23 226.148 1321.51 226.057C1324.31 224.928 1327.2 223.979 1330.18 223.211C1330.5 223.12 1330.82 223.301 1330.86 223.617C1330.95 223.934 1330.77 224.25 1330.45 224.295C1327.52 225.063 1324.67 226.012 1321.91 227.097C1321.91 227.142 1321.82 227.142 1321.73 227.142ZM1366.3 222.939C1366.25 222.939 1366.25 222.939 1366.21 222.939C1363.22 222.442 1360.2 222.081 1357.26 221.9C1356.94 221.9 1356.72 221.629 1356.72 221.313C1356.72 220.996 1356.99 220.77 1357.3 220.77C1360.29 220.951 1363.31 221.313 1366.34 221.81C1366.66 221.855 1366.84 222.171 1366.79 222.442C1366.79 222.759 1366.57 222.939 1366.3 222.939ZM1339.22 222.533C1338.95 222.533 1338.68 222.307 1338.68 222.036C1338.64 221.719 1338.86 221.448 1339.18 221.403C1342.16 220.996 1345.19 220.725 1348.26 220.635C1348.58 220.59 1348.85 220.861 1348.85 221.177C1348.85 221.493 1348.62 221.765 1348.31 221.765C1345.28 221.855 1342.25 222.126 1339.36 222.533C1339.27 222.533 1339.27 222.533 1339.22 222.533Z" fill="#FF443C"/>
<path d="M1249.46 291.715H1224.55C1223.2 291.715 1222.07 290.631 1222.07 289.23V274.679C1222.07 273.324 1223.15 272.194 1224.55 272.194H1249.46C1250.81 272.194 1251.94 273.279 1251.94 274.679V289.23C1251.94 290.586 1250.81 291.715 1249.46 291.715Z" fill="#FF443C"/>
<path d="M1251.72 290.224L1236.98 281.322L1222.29 290.224C1222.66 291.083 1223.56 291.715 1224.55 291.715H1249.46C1250.45 291.715 1251.36 291.083 1251.72 290.224Z" fill="#FF443C"/>
<path d="M1222.29 273.686L1237.03 283.717L1251.72 273.731C1251.36 272.872 1250.45 272.24 1249.46 272.24H1224.55C1223.56 272.194 1222.7 272.827 1222.29 273.686Z" fill="#FF443C"/>
<path d="M1237.03 283.988L1222.16 273.866L1222.43 273.504L1237.03 283.446L1251.58 273.504L1251.85 273.911L1237.03 283.988Z" fill="#66192D"/>
<path d="M1725.58 342.958H1700.68C1699.32 342.958 1698.19 341.874 1698.19 340.473V325.922C1698.19 324.567 1699.28 323.437 1700.68 323.437H1725.58C1726.94 323.437 1728.07 324.522 1728.07 325.922V340.473C1728.02 341.874 1726.94 342.958 1725.58 342.958Z" fill="#786AB5"/>
<path d="M1727.8 341.466L1713.06 332.564L1698.37 341.466C1698.73 342.325 1699.64 342.958 1700.63 342.958H1725.54C1726.58 342.958 1727.43 342.37 1727.8 341.466Z" fill="#786AB5"/>
<path d="M1698.42 324.928L1713.15 334.96L1727.84 324.973C1727.48 324.115 1726.58 323.482 1725.58 323.482H1700.68C1699.64 323.482 1698.78 324.069 1698.42 324.928Z" fill="#786AB5"/>
<path d="M1713.11 335.231L1698.28 325.154L1698.55 324.747L1713.11 334.688L1727.71 324.792L1727.98 325.154L1713.11 335.231Z" fill="#66192D"/>
<path d="M1827.1 673.145H1802.19C1800.84 673.145 1799.71 672.06 1799.71 670.66V656.109C1799.71 654.753 1800.79 653.624 1802.19 653.624H1827.1C1828.45 653.624 1829.58 654.708 1829.58 656.109V670.66C1829.54 672.015 1828.45 673.145 1827.1 673.145Z" fill="#FF8548"/>
<path d="M1829.36 671.654L1814.62 662.752L1799.93 671.654C1800.29 672.513 1801.2 673.146 1802.19 673.146H1827.1C1828.09 673.146 1828.95 672.513 1829.36 671.654Z" fill="#FF8548"/>
<path d="M1799.93 655.115L1814.67 665.147L1829.36 655.16C1829 654.302 1828.09 653.669 1827.1 653.669H1802.19C1801.2 653.669 1800.29 654.257 1799.93 655.115Z" fill="#FF8548"/>
<path d="M1814.67 665.418L1799.8 655.296L1800.07 654.934L1814.67 664.875L1829.22 654.934L1829.49 655.341L1814.67 665.418Z" fill="#66192D"/>
<path d="M1290.91 501.612H1266C1264.65 501.612 1263.52 500.527 1263.52 499.127V484.576C1263.52 483.221 1264.6 482.091 1266 482.091H1290.91C1292.26 482.091 1293.39 483.175 1293.39 484.576V499.127C1293.39 500.527 1292.26 501.612 1290.91 501.612Z" fill="#FFBA41"/>
<path d="M1293.17 500.166L1278.43 491.264L1263.74 500.166C1264.1 501.025 1265.01 501.657 1266 501.657H1290.91C1291.95 501.612 1292.8 501.025 1293.17 500.166Z" fill="#FFBA41"/>
<path d="M1263.79 483.628L1278.52 493.659L1293.21 483.673C1292.85 482.814 1291.95 482.182 1290.95 482.182H1266.05C1265.01 482.136 1264.15 482.724 1263.79 483.628Z" fill="#FFBA41"/>
<path d="M1278.48 493.93L1263.65 483.808L1263.88 483.402L1278.48 493.343L1293.03 483.447L1293.3 483.808L1278.48 493.93Z" fill="#66192D"/>
<defs>
<linearGradient id="paint0_linear_0_1" x1="-31.1233" y1="84.2203" x2="441.175" y2="394.279" gradientUnits="userSpaceOnUse">
<stop stop-color="#FFDF00"/>
<stop offset="1" stop-color="#FFB800"/>
</linearGradient>
<linearGradient id="paint1_linear_0_1" x1="573.078" y1="488.61" x2="830.305" y2="737.347" gradientUnits="userSpaceOnUse">
<stop stop-color="#FFDF00"/>
<stop offset="1" stop-color="#FFB800"/>
</linearGradient>
<linearGradient id="paint2_linear_0_1" x1="1180.22" y1="95.8475" x2="1289.96" y2="201.96" gradientUnits="userSpaceOnUse">
<stop stop-color="#FFDF00"/>
<stop offset="1" stop-color="#FFB800"/>
</linearGradient>
<linearGradient id="paint3_linear_0_1" x1="1090.74" y1="577.949" x2="1127.32" y2="613.32" gradientUnits="userSpaceOnUse">
<stop stop-color="#FFDF00"/>
<stop offset="1" stop-color="#FFB800"/>
</linearGradient>
<linearGradient id="paint4_linear_0_1" x1="1199.72" y1="447.616" x2="1991.94" y2="618.73" gradientUnits="userSpaceOnUse">
<stop offset="0.00666585" stop-color="#FF9C37"/>
<stop offset="0.9967" stop-color="#FF7300"/>
</linearGradient>
<linearGradient id="paint5_linear_0_1" x1="1670.99" y1="-79.3042" x2="1489.83" y2="1162.62" gradientUnits="userSpaceOnUse">
<stop stop-color="#FFDF00"/>
<stop offset="1" stop-color="#FFB800"/>
</linearGradient>
</defs>
</svg>
