<svg width="672" height="592" viewBox="0 0 672 592" fill="none" xmlns="http://www.w3.org/2000/svg">
<path d="M336 79.6345C455.19 79.6345 552 176.611 552 295.635C552 414.658 455.024 511.635 336 511.635" stroke="url(#paint0_linear_0_1)" stroke-width="3.31634" stroke-miterlimit="10"/>
<path d="M336 79.6345C216.81 79.6345 120 176.611 120 295.635C120 414.658 216.976 511.635 336 511.635" stroke="url(#paint1_linear_0_1)" stroke-width="3.31634" stroke-miterlimit="10"/>
<path d="M553.025 296.248H671.418" stroke="url(#paint2_linear_0_1)" stroke-width="1.65817" stroke-miterlimit="10"/>
<path d="M530.806 391.758L638.255 443.991" stroke="url(#paint3_linear_0_1)" stroke-width="1.65817" stroke-miterlimit="10"/>
<path d="M468.458 467.537L505.601 591.733" stroke="url(#paint4_linear_0_1)" stroke-width="1.65817" stroke-miterlimit="10"/>
<g opacity="0.3">
<path d="M459.054 472.778C455.67 468.459 456.593 462.134 460.9 458.741C465.208 455.347 471.515 456.118 474.899 460.592C478.284 464.911 477.515 471.236 473.053 474.629C471.207 476.018 469.054 476.635 466.9 476.635C463.977 476.635 460.9 475.246 459.054 472.778Z" fill="url(#paint5_linear_0_1)"/>
<path d="M459.054 472.778C455.67 468.459 456.593 462.134 460.9 458.741C465.208 455.347 471.515 456.118 474.899 460.592C478.284 464.911 477.515 471.236 473.053 474.629C471.207 476.018 469.054 476.635 466.9 476.635C463.977 476.635 460.9 475.246 459.054 472.778Z" fill="url(#paint6_linear_0_1)"/>
</g>
<g opacity="0.3">
<path d="M525.512 399.556C520.592 397.092 518.593 391.085 521.053 386.156C523.513 381.227 529.511 379.225 534.431 381.689C539.352 384.154 541.351 390.161 539.045 395.09C537.353 398.632 533.816 400.635 530.126 400.635C528.434 400.635 526.896 400.172 525.512 399.556Z" fill="url(#paint7_linear_0_1)"/>
<path d="M525.512 399.556C520.592 397.092 518.593 391.085 521.053 386.156C523.513 381.227 529.511 379.225 534.431 381.689C539.352 384.154 541.351 390.161 539.045 395.09C537.353 398.632 533.816 400.635 530.126 400.635C528.434 400.635 526.896 400.172 525.512 399.556Z" fill="url(#paint8_linear_0_1)"/>
</g>
<g opacity="0.3">
<path d="M542 294.635C542 289.096 546.462 284.635 552 284.635C557.538 284.635 562 289.096 562 294.635C562 300.173 557.538 304.635 552 304.635C546.462 304.635 542 300.173 542 294.635Z" fill="url(#paint9_linear_0_1)"/>
<path d="M542 294.635C542 289.096 546.462 284.635 552 284.635C557.538 284.635 562 289.096 562 294.635C562 300.173 557.538 304.635 552 304.635C546.462 304.635 542 300.173 542 294.635Z" fill="url(#paint10_linear_0_1)"/>
</g>
<g opacity="0.3">
<path d="M520.056 204.09C517.589 199.161 519.593 193.154 524.528 190.689C529.463 188.225 535.477 190.227 537.944 195.156C540.411 200.085 538.407 206.092 533.472 208.556C532.084 209.326 530.542 209.635 529 209.635C525.299 209.635 521.752 207.632 520.056 204.09Z" fill="url(#paint11_linear_0_1)"/>
<path d="M520.056 204.09C517.589 199.161 519.593 193.154 524.528 190.689C529.463 188.225 535.477 190.227 537.944 195.156C540.411 200.085 538.407 206.092 533.472 208.556C532.084 209.326 530.542 209.635 529 209.635C525.299 209.635 521.752 207.632 520.056 204.09Z" fill="url(#paint12_linear_0_1)"/>
</g>
<path d="M468.292 124.793L505.601 0.762207" stroke="url(#paint13_linear_0_1)" stroke-width="1.65817" stroke-miterlimit="10"/>
<g opacity="0.3">
<path d="M460.909 131.624C456.592 128.223 455.667 121.884 459.059 117.555C462.451 113.225 468.773 112.298 473.091 115.699C477.408 119.101 478.333 125.44 474.941 129.769C472.936 132.398 470.007 133.635 466.923 133.635C464.764 133.635 462.605 133.016 460.909 131.624Z" fill="url(#paint14_linear_0_1)"/>
<path d="M460.909 131.624C456.592 128.223 455.667 121.884 459.059 117.555C462.451 113.225 468.773 112.298 473.091 115.699C477.408 119.101 478.333 125.44 474.941 129.769C472.936 132.398 470.007 133.635 466.923 133.635C464.764 133.635 462.605 133.016 460.909 131.624Z" fill="url(#paint15_linear_0_1)"/>
</g>
<path d="M118.393 296.248H0" stroke="url(#paint16_linear_0_1)" stroke-width="1.65817" stroke-miterlimit="10"/>
<path d="M142.575 391.758L35.1252 443.991" stroke="url(#paint17_linear_0_1)" stroke-width="1.65817" stroke-miterlimit="10"/>
<path d="M142.575 201.232L35.1252 149" stroke="url(#paint18_linear_0_1)" stroke-width="1.65817" stroke-miterlimit="10"/>
<path d="M204.922 467.537L167.779 591.733" stroke="url(#paint19_linear_0_1)" stroke-width="1.65817" stroke-miterlimit="10"/>
<g opacity="0.3">
<path d="M211.946 472.778C215.33 468.459 214.407 462.134 210.1 458.741C205.792 455.347 199.485 456.118 196.101 460.592C192.716 464.911 193.485 471.236 197.947 474.629C199.793 476.018 201.946 476.635 204.1 476.635C207.023 476.635 209.946 475.246 211.946 472.778Z" fill="url(#paint20_linear_0_1)"/>
<path d="M211.946 472.778C215.33 468.459 214.407 462.134 210.1 458.741C205.792 455.347 199.485 456.118 196.101 460.592C192.716 464.911 193.485 471.236 197.947 474.629C199.793 476.018 201.946 476.635 204.1 476.635C207.023 476.635 209.946 475.246 211.946 472.778Z" fill="url(#paint21_linear_0_1)"/>
</g>
<g opacity="0.3">
<path d="M145.488 399.556C150.408 397.092 152.407 391.085 149.947 386.156C147.487 381.227 141.489 379.225 136.569 381.689C131.648 384.154 129.649 390.161 131.955 395.09C133.647 398.632 137.184 400.635 140.874 400.635C142.566 400.635 144.104 400.172 145.488 399.556Z" fill="url(#paint22_linear_0_1)"/>
<path d="M145.488 399.556C150.408 397.092 152.407 391.085 149.947 386.156C147.487 381.227 141.489 379.225 136.569 381.689C131.648 384.154 129.649 390.161 131.955 395.09C133.647 398.632 137.184 400.635 140.874 400.635C142.566 400.635 144.104 400.172 145.488 399.556Z" fill="url(#paint23_linear_0_1)"/>
</g>
<g opacity="0.3">
<path d="M127 294.635C127 289.096 122.538 284.635 117 284.635C111.462 284.635 107 289.096 107 294.635C107 300.173 111.462 304.635 117 304.635C122.538 304.635 127 300.173 127 294.635Z" fill="url(#paint24_linear_0_1)"/>
<path d="M127 294.635C127 289.096 122.538 284.635 117 284.635C111.462 284.635 107 289.096 107 294.635C107 300.173 111.462 304.635 117 304.635C122.538 304.635 127 300.173 127 294.635Z" fill="url(#paint25_linear_0_1)"/>
</g>
<g opacity="0.3">
<path d="M149.944 204.09C152.411 199.161 150.407 193.154 145.472 190.689C140.537 188.225 134.523 190.227 132.056 195.156C129.589 200.085 131.593 206.092 136.528 208.556C137.916 209.326 139.458 209.635 141 209.635C144.701 209.635 148.248 207.632 149.944 204.09Z" fill="url(#paint26_linear_0_1)"/>
<path d="M149.944 204.09C152.411 199.161 150.407 193.154 145.472 190.689C140.537 188.225 134.523 190.227 132.056 195.156C129.589 200.085 131.593 206.092 136.528 208.556C137.916 209.326 139.458 209.635 141 209.635C144.701 209.635 148.248 207.632 149.944 204.09Z" fill="url(#paint27_linear_0_1)"/>
</g>
<path d="M205.087 124.793L167.779 0.762207" stroke="url(#paint28_linear_0_1)" stroke-width="1.65817" stroke-miterlimit="10"/>
<g opacity="0.3">
<path d="M210.091 131.624C214.408 128.223 215.333 121.884 211.941 117.555C208.549 113.225 202.227 112.298 197.909 115.699C193.592 119.101 192.667 125.44 196.059 129.769C198.064 132.398 200.993 133.635 204.077 133.635C206.236 133.635 208.395 133.016 210.091 131.624Z" fill="url(#paint29_linear_0_1)"/>
<path d="M210.091 131.624C214.408 128.223 215.333 121.884 211.941 117.555C208.549 113.225 202.227 112.298 197.909 115.699C193.592 119.101 192.667 125.44 196.059 129.769C198.064 132.398 200.993 133.635 204.077 133.635C206.236 133.635 208.395 133.016 210.091 131.624Z" fill="url(#paint30_linear_0_1)"/>
</g>
<path d="M521 295.469C521 397.492 438.098 480.635 336 480.635V413.889C401.197 413.889 454.149 360.89 454.149 295.635C454.149 230.38 401.197 177.381 336 177.381V110.636C438.098 110.304 521 193.446 521 295.469Z" fill="#FFCD01"/>
<path d="M152 295.469C152 397.492 234.902 480.635 337 480.635V413.889C271.803 413.889 218.851 360.89 218.851 295.635C218.851 230.38 271.803 177.381 337 177.381V110.636C234.902 110.304 152 193.446 152 295.469Z" fill="#FFCD01"/>
<path d="M342.752 228C309.494 239.191 281.439 262.005 270 296C281.308 329.607 309.1 352.676 342.752 364C372.677 340.981 388.995 322.494 401 296C383.769 284.458 376.531 278.516 362.561 260.655C343.843 269.328 327.551 279.435 313.118 295.631C318.298 302.992 326.897 309.862 333.849 315.507C343.981 308.078 351.708 300.84 356.714 294.629C359.852 298.455 363.391 301.001 366.761 303.129C358.055 317.906 348.285 326.019 336.22 333.768C318.098 324.197 303.531 307.629 296.451 293.62C309.721 271.792 330.535 257.053 354.185 248.839C350.353 242.143 345.331 235.908 342.752 228Z" fill="#FFE30B"/>
<defs>
<linearGradient id="paint0_linear_0_1" x1="336.076" y1="295.634" x2="553.781" y2="295.634" gradientUnits="userSpaceOnUse">
<stop stop-color="white"/>
<stop offset="1" stop-color="#F5F5F5"/>
</linearGradient>
<linearGradient id="paint1_linear_0_1" x1="336.075" y1="295.634" x2="118.37" y2="295.634" gradientUnits="userSpaceOnUse">
<stop stop-color="white"/>
<stop offset="1" stop-color="#F5F5F5"/>
</linearGradient>
<linearGradient id="paint2_linear_0_1" x1="nan" y1="nan" x2="nan" y2="nan" gradientUnits="userSpaceOnUse">
<stop stop-color="white"/>
<stop offset="1" stop-color="#F5F5F5"/>
</linearGradient>
<linearGradient id="paint3_linear_0_1" x1="530.383" y1="417.832" x2="638.59" y2="417.832" gradientUnits="userSpaceOnUse">
<stop stop-color="white"/>
<stop offset="1" stop-color="#F5F5F5"/>
</linearGradient>
<linearGradient id="paint4_linear_0_1" x1="467.698" y1="529.63" x2="506.368" y2="529.63" gradientUnits="userSpaceOnUse">
<stop stop-color="white"/>
<stop offset="1" stop-color="#F5F5F5"/>
</linearGradient>
<linearGradient id="paint5_linear_0_1" x1="459.855" y1="459.528" x2="474.963" y2="474.595" gradientUnits="userSpaceOnUse">
<stop stop-color="#E991FC"/>
<stop offset="1" stop-color="#7533D8"/>
</linearGradient>
<linearGradient id="paint6_linear_0_1" x1="454.897" y1="455.957" x2="478.496" y2="478.776" gradientUnits="userSpaceOnUse">
<stop stop-color="#FFDF00"/>
<stop offset="1" stop-color="#FFB800"/>
</linearGradient>
<linearGradient id="paint7_linear_0_1" x1="522.842" y1="383.47" x2="537.932" y2="398.535" gradientUnits="userSpaceOnUse">
<stop stop-color="#E991FC"/>
<stop offset="1" stop-color="#7533D8"/>
</linearGradient>
<linearGradient id="paint8_linear_0_1" x1="517.897" y1="379.957" x2="541.496" y2="402.776" gradientUnits="userSpaceOnUse">
<stop stop-color="#FFDF00"/>
<stop offset="1" stop-color="#FFB800"/>
</linearGradient>
<linearGradient id="paint9_linear_0_1" x1="544.889" y1="287.602" x2="559.955" y2="302.668" gradientUnits="userSpaceOnUse">
<stop stop-color="#E991FC"/>
<stop offset="1" stop-color="#7533D8"/>
</linearGradient>
<linearGradient id="paint10_linear_0_1" x1="539.897" y1="283.957" x2="563.496" y2="306.776" gradientUnits="userSpaceOnUse">
<stop stop-color="#FFDF00"/>
<stop offset="1" stop-color="#FFB800"/>
</linearGradient>
<linearGradient id="paint11_linear_0_1" x1="521.91" y1="192.566" x2="536.995" y2="207.669" gradientUnits="userSpaceOnUse">
<stop stop-color="#E991FC"/>
<stop offset="1" stop-color="#7533D8"/>
</linearGradient>
<linearGradient id="paint12_linear_0_1" x1="516.897" y1="188.957" x2="540.496" y2="211.776" gradientUnits="userSpaceOnUse">
<stop stop-color="#FFDF00"/>
<stop offset="1" stop-color="#FFB800"/>
</linearGradient>
<linearGradient id="paint13_linear_0_1" x1="467.517" y1="62.7974" x2="506.368" y2="62.7974" gradientUnits="userSpaceOnUse">
<stop stop-color="white"/>
<stop offset="1" stop-color="#F5F5F5"/>
</linearGradient>
<linearGradient id="paint14_linear_0_1" x1="459.849" y1="116.486" x2="474.999" y2="131.594" gradientUnits="userSpaceOnUse">
<stop stop-color="#E991FC"/>
<stop offset="1" stop-color="#7533D8"/>
</linearGradient>
<linearGradient id="paint15_linear_0_1" x1="454.897" y1="112.957" x2="478.496" y2="135.776" gradientUnits="userSpaceOnUse">
<stop stop-color="#FFDF00"/>
<stop offset="1" stop-color="#FFB800"/>
</linearGradient>
<linearGradient id="paint16_linear_0_1" x1="nan" y1="nan" x2="nan" y2="nan" gradientUnits="userSpaceOnUse">
<stop stop-color="white"/>
<stop offset="1" stop-color="#F5F5F5"/>
</linearGradient>
<linearGradient id="paint17_linear_0_1" x1="142.982" y1="417.833" x2="34.7754" y2="417.833" gradientUnits="userSpaceOnUse">
<stop stop-color="white"/>
<stop offset="1" stop-color="#F5F5F5"/>
</linearGradient>
<linearGradient id="paint18_linear_0_1" x1="142.982" y1="175.158" x2="34.7754" y2="175.158" gradientUnits="userSpaceOnUse">
<stop stop-color="white"/>
<stop offset="1" stop-color="#F5F5F5"/>
</linearGradient>
<linearGradient id="paint19_linear_0_1" x1="205.668" y1="529.63" x2="166.997" y2="529.63" gradientUnits="userSpaceOnUse">
<stop stop-color="white"/>
<stop offset="1" stop-color="#F5F5F5"/>
</linearGradient>
<linearGradient id="paint20_linear_0_1" x1="196.987" y1="459.527" x2="212.1" y2="474.599" gradientUnits="userSpaceOnUse">
<stop stop-color="#FFDB65"/>
<stop offset="1" stop-color="#FF8C33"/>
</linearGradient>
<linearGradient id="paint21_linear_0_1" x1="191.897" y1="455.957" x2="215.496" y2="478.776" gradientUnits="userSpaceOnUse">
<stop stop-color="#FFDF00"/>
<stop offset="1" stop-color="#FFB800"/>
</linearGradient>
<linearGradient id="paint22_linear_0_1" x1="134.003" y1="383.47" x2="149.094" y2="398.536" gradientUnits="userSpaceOnUse">
<stop stop-color="#FFDB65"/>
<stop offset="1" stop-color="#FF8C33"/>
</linearGradient>
<linearGradient id="paint23_linear_0_1" x1="128.897" y1="379.957" x2="152.496" y2="402.776" gradientUnits="userSpaceOnUse">
<stop stop-color="#FFDF00"/>
<stop offset="1" stop-color="#FFB800"/>
</linearGradient>
<linearGradient id="paint24_linear_0_1" x1="109.955" y1="287.602" x2="125.023" y2="302.67" gradientUnits="userSpaceOnUse">
<stop stop-color="#FFDB65"/>
<stop offset="1" stop-color="#FF8C33"/>
</linearGradient>
<linearGradient id="paint25_linear_0_1" x1="104.897" y1="283.957" x2="128.496" y2="306.776" gradientUnits="userSpaceOnUse">
<stop stop-color="#FFDF00"/>
<stop offset="1" stop-color="#FFB800"/>
</linearGradient>
<linearGradient id="paint26_linear_0_1" x1="133.899" y1="192.565" x2="148.988" y2="207.671" gradientUnits="userSpaceOnUse">
<stop stop-color="#FFDB65"/>
<stop offset="1" stop-color="#FF8C33"/>
</linearGradient>
<linearGradient id="paint27_linear_0_1" x1="128.897" y1="188.957" x2="152.496" y2="211.776" gradientUnits="userSpaceOnUse">
<stop stop-color="#FFDF00"/>
<stop offset="1" stop-color="#FFB800"/>
</linearGradient>
<linearGradient id="paint28_linear_0_1" x1="205.848" y1="62.7979" x2="166.997" y2="62.7979" gradientUnits="userSpaceOnUse">
<stop stop-color="white"/>
<stop offset="1" stop-color="#F5F5F5"/>
</linearGradient>
<linearGradient id="paint29_linear_0_1" x1="196.959" y1="116.49" x2="212.102" y2="131.591" gradientUnits="userSpaceOnUse">
<stop stop-color="#FFDB65"/>
<stop offset="1" stop-color="#FF8C33"/>
</linearGradient>
<linearGradient id="paint30_linear_0_1" x1="191.897" y1="112.957" x2="215.496" y2="135.776" gradientUnits="userSpaceOnUse">
<stop stop-color="#FFDF00"/>
<stop offset="1" stop-color="#FFB800"/>
</linearGradient>
</defs>
</svg>
